<?xml version="1.0" encoding="UTF-8"?><svg id="art_lines" xmlns="http://www.w3.org/2000/svg" viewBox="0 0 600 600"><path d="m186.52,481.1h10.73v2.29h-8v4.47h7.1v2.31h-7.1v5.63h-2.73v-14.7Z" fill="#231f20"/><path d="m199.27,481.16c0-.88.71-1.58,1.7-1.58s1.68.65,1.68,1.51c0,.92-.69,1.64-1.68,1.64s-1.7-.69-1.7-1.57Zm.38,3.42h2.62v11.21h-2.62v-11.21Z" fill="#231f20"/><path d="m205.33,498.42l1.18-1.97c.99.82,2.58,1.34,4.14,1.34,2.48,0,3.57-1.13,3.57-3.4v-.59c-.92,1.01-2.25,1.49-3.76,1.49-3.21,0-5.67-2.18-5.67-5.44s2.46-5.4,5.67-5.4c1.57,0,2.96.5,3.88,1.62v-1.49h2.5v9.51c0,4.07-2.12,5.92-6.05,5.92-2.1,0-4.18-.55-5.46-1.6Zm8.92-8.57c0-1.89-1.43-3.17-3.4-3.17s-3.42,1.28-3.42,3.17,1.43,3.21,3.42,3.21,3.4-1.3,3.4-3.21Z" fill="#231f20"/><path d="m219.4,494.2c0-1.05.78-1.74,1.72-1.74s1.72.69,1.72,1.74-.78,1.74-1.72,1.74-1.72-.74-1.72-1.74Z" fill="#231f20"/><path d="m232.76,483.39h-3.11v-2.29h5.84v14.7h-2.73v-12.41Z" fill="#231f20"/><path d="m244.44,488.87h5.77v2.18h-5.77v-2.18Z" fill="#231f20"/><path d="m259.13,481.1h2.73v14.7h-2.73v-14.7Z" fill="#231f20"/><path d="m264.3,494.69l1.01-2c.99.65,2.5,1.11,3.91,1.11,1.66,0,2.35-.46,2.35-1.24,0-2.14-6.93-.13-6.93-4.6,0-2.12,1.91-3.51,4.93-3.51,1.49,0,3.19.36,4.2.97l-1.01,2c-1.07-.63-2.14-.84-3.21-.84-1.6,0-2.35.52-2.35,1.26,0,2.27,6.93.25,6.93,4.64,0,2.1-1.93,3.46-5.08,3.46-1.87,0-3.74-.55-4.75-1.26Z" fill="#231f20"/><path d="m275.47,490.19c0-3.36,2.52-5.73,5.96-5.73s5.98,2.37,5.98,5.73-2.5,5.75-5.98,5.75-5.96-2.39-5.96-5.75Zm9.3,0c0-2.14-1.43-3.51-3.34-3.51s-3.32,1.37-3.32,3.51,1.43,3.51,3.32,3.51,3.34-1.36,3.34-3.51Z" fill="#231f20"/><path d="m289.94,484.59h2.5v1.41c.84-1.01,2.14-1.53,3.67-1.53,1.64,0,3,.61,3.78,1.89.9-1.18,2.41-1.89,4.2-1.89,2.71,0,4.6,1.53,4.6,4.91v6.42h-2.62v-6.09c0-1.99-.92-2.96-2.52-2.96-1.72,0-2.92,1.13-2.92,3.36v5.69h-2.62v-6.09c0-1.99-.92-2.96-2.52-2.96-1.74,0-2.92,1.13-2.92,3.36v5.69h-2.62v-11.21Z" fill="#231f20"/><path d="m311.15,490.19c0-3.34,2.46-5.73,5.79-5.73s5.67,2.29,5.67,5.79c0,.21-.02.53-.04.78h-8.8c.31,1.64,1.68,2.69,3.63,2.69,1.26,0,2.25-.4,3.04-1.22l1.41,1.62c-1.01,1.2-2.58,1.83-4.51,1.83-3.76,0-6.19-2.42-6.19-5.75Zm8.97-.9c-.21-1.62-1.45-2.73-3.17-2.73s-2.94,1.09-3.19,2.73h6.36Z" fill="#231f20"/><path d="m325.49,492.17v-5.48h-1.85v-2.1h1.85v-2.48h2.62v2.48h3v2.1h-3v5.42c0,1.09.55,1.68,1.55,1.68.55,0,1.07-.15,1.47-.46l.73,1.87c-.63.5-1.57.76-2.52.76-2.46,0-3.86-1.3-3.86-3.78Z" fill="#231f20"/><path d="m334.04,484.59h2.5v1.64c.76-1.18,2.12-1.76,3.99-1.76v2.5c-.23-.04-.42-.06-.61-.06-1.99,0-3.25,1.18-3.25,3.46v5.44h-2.62v-11.21Z" fill="#231f20"/><path d="m342.38,481.16c0-.88.71-1.58,1.7-1.58s1.68.65,1.68,1.51c0,.92-.69,1.64-1.68,1.64s-1.7-.69-1.7-1.57Zm.38,3.42h2.62v11.21h-2.62v-11.21Z" fill="#231f20"/><path d="m347.9,490.19c0-3.36,2.52-5.73,6.07-5.73,2.18,0,3.93.9,4.79,2.6l-2.02,1.18c-.67-1.07-1.68-1.55-2.79-1.55-1.93,0-3.4,1.34-3.4,3.51s1.47,3.51,3.4,3.51c1.11,0,2.12-.48,2.79-1.55l2.02,1.18c-.86,1.68-2.6,2.62-4.79,2.62-3.55,0-6.07-2.39-6.07-5.75Z" fill="#231f20"/><path d="m364.99,484.59h2.73l3.49,8.31,3.59-8.31h2.52l-4.81,11.21h-2.71l-4.81-11.21Z" fill="#231f20"/><path d="m378.58,481.16c0-.88.71-1.58,1.7-1.58s1.68.65,1.68,1.51c0,.92-.69,1.64-1.68,1.64s-1.7-.69-1.7-1.57Zm.38,3.42h2.62v11.21h-2.62v-11.21Z" fill="#231f20"/><path d="m384.1,490.19c0-3.34,2.46-5.73,5.79-5.73s5.67,2.29,5.67,5.79c0,.21-.02.53-.04.78h-8.8c.31,1.64,1.68,2.69,3.63,2.69,1.26,0,2.25-.4,3.04-1.22l1.41,1.62c-1.01,1.2-2.58,1.83-4.51,1.83-3.76,0-6.19-2.42-6.19-5.75Zm8.97-.9c-.21-1.62-1.45-2.73-3.17-2.73s-2.94,1.09-3.19,2.73h6.36Z" fill="#231f20"/><path d="m396.24,484.59h2.48l2.96,8.27,3.09-8.27h2.2l3.02,8.29,3.04-8.29h2.33l-4.14,11.21h-2.52l-2.9-7.75-2.94,7.75h-2.52l-4.12-11.21Z" fill="#231f20"/><path d="m467.53,193.9c8.87,65.62-64.08,124.42-164.02,128.97-97.64,4.44-180-30-186.58-90.68-6.58-60.68,65.57-118.53,162.74-129.07,97.17-10.54,179.69,30.3,187.87,90.79Z" fill="none" stroke="#231f20" stroke-linecap="round" stroke-linejoin="round"/><path d="m430.95,136.49c22.6,15.78,36.98,36.41,40.72,60.13,2.51,15.95,1.61,33.21-3.4,48.53" fill="none" stroke="#231f20" stroke-linecap="round" stroke-linejoin="round"/><path d="m467.43,180.86c22.11,83.93-69.22,147.59-164.95,151.94-81.67,3.71-152.79-24.85-177.97-68.17" fill="none" stroke="#231f20" stroke-linecap="round" stroke-linejoin="round"/><path d="m467.37,180.62c22.11,83.93-69.15,147.83-164.89,152.19-81.67,3.71-152.79-24.85-177.97-68.17" fill="none" stroke="#231f20" stroke-linecap="round" stroke-linejoin="round"/><path d="m438.57,379.16c2.49-.38,4.83-.26,7.29.08,12.93,1.75,22.07,9.73,20.28,19.07-1.64,8.56-12.87,14.1-25.29,12.33-11.61-1.66-21.53-9.13-20.23-17.75.12-.78.55-2.95,1.61-4.7" fill="none" stroke="#231f20" stroke-linecap="round" stroke-linejoin="round"/><path d="m431.11,362.37c6.95-1.04,14.52-.71,22.21,1,23.12,5.14,35.59,25.95,27.92,44.76-6.74,16.54-31.43,25.23-52.48,17.88-21.05-7.35-30.49-27.47-24.61-44.34,1.18-3.38,2.99-6.34,5.3-8.87" fill="none" stroke="#231f20" stroke-linecap="round" stroke-linejoin="round"/><ellipse cx="430.99" cy="381.7" rx="10.92" ry="4.77" transform="translate(-143.43 420.3) rotate(-45.37)" fill="none" stroke="#231f20" stroke-linecap="round" stroke-linejoin="round"/><path d="m421.23,386.99c-.46-2.39,1.86-7.48,5.44-11.06,4.35-4.35,9.42-6.34,11.33-4.44.56.56.78,1.4.71,2.41" fill="none" stroke="#231f20" stroke-linecap="round" stroke-linejoin="round"/><path d="m403.21,398.94c-23.59,15.08-52.47,25.15-83.73,28.41-79.43,8.3-160.18-21.76-177.81-101.11-2.27-10.21-8.15-28.21-8.15-28.21" fill="none" stroke="#231f20" stroke-linecap="round" stroke-linejoin="round"/><path d="m467.56,264.37s-3.49,27.72-3.43,32.29c.34,23.98-7.4,46.18-21.09,65.25" fill="none" stroke="#231f20" stroke-linecap="round" stroke-linejoin="round"/><path d="m403.87,401.42c-23.75,15.19-52.85,25.33-84.37,28.63-78.8,8.23-158.87-20.96-177.85-98.15-.46-1.85.02-5.65.02-5.65h0" fill="none" stroke="#231f20" stroke-linecap="round" stroke-linejoin="round"/><path d="m464.17,295.27l.49,3.05s.16,1.28.16,1.92c.11,22.6-7,43.59-19.5,61.85" fill="none" stroke="#231f20" stroke-linecap="round" stroke-linejoin="round"/><path d="m404.57,403.47c-24.15,15.85-53.7,26.93-85.07,30.21-78.8,8.23-158.18-20.48-177.16-97.67-.13-.53-.39-2.53-.46-3.2" fill="none" stroke="#231f20" stroke-linecap="round" stroke-linejoin="round"/><path d="m464.75,304.94c1.35,19.75-5.13,39.49-17.3,57.4" fill="none" stroke="#231f20" stroke-linecap="round" stroke-linejoin="round"/><path d="m423.1,389.23l-13.31-15.91c-2.52-3.5-1.71-8.38,1.79-10.9l6.5-4.67c3.5-2.52,8.38-1.71,10.9,1.79l9.39,12.47" fill="none" stroke="#231f20" stroke-linecap="round" stroke-linejoin="round"/><path d="m116.92,232.19s1.69,30.67,19.06,53.29h0c29.93,34.84,91.31,58.37,161.66,58.27,76.78-.11,149.81-38.81,170.62-98.59" fill="none" stroke="#231f20" stroke-linecap="round" stroke-linejoin="round"/><path d="m468.07,245.67c5.98,60.56-63.55,118.06-156.13,128.79-93.23,10.8-174.53-29.91-181.6-90.93-.29-2.48-.45-4.95-.48-7.41" fill="none" stroke="#231f20" stroke-linecap="round" stroke-linejoin="round"/><path d="m466.57,249.67c-7.71,53.58-72.37,101.14-155.72,110.8-89.16,10.33-167.41-26.45-180.26-83.06" fill="none" stroke="#231f20" stroke-linecap="round" stroke-linejoin="round"/><path d="m126.11,234.83c-5.34-19.09-2.48-39.69,6.22-57.45" fill="none" stroke="#231f20" stroke-linecap="round" stroke-linejoin="round" stroke-width=".25"/><path d="m316.64,316.81c-52.79,3.67-110.02-2.06-154.4-32.86" fill="none" stroke="#231f20" stroke-linecap="round" stroke-linejoin="round" stroke-width=".25"/><path d="m455.91,223.24c-13.5,43.44-54.13,71.48-96.19,84.96" fill="none" stroke="#231f20" stroke-linecap="round" stroke-linejoin="round" stroke-width=".25"/><path d="m440.25,144.25c4.28,5.38,7.97,11.24,10.94,17.45" fill="none" stroke="#231f20" stroke-linecap="round" stroke-linejoin="round" stroke-width=".25"/><path d="m130.57,229.79c-6.94-24.35,1.65-50.1,16.59-70.07" fill="none" stroke="#231f20" stroke-linecap="round" stroke-linejoin="round" stroke-width=".25"/><path d="m310.56,306.65c-48.43,2.38-100.51-1.63-142.5-29.11" fill="none" stroke="#231f20" stroke-linecap="round" stroke-linejoin="round" stroke-width=".25"/><path d="m449.47,221.09c-14.5,41.01-55.14,66.19-95.08,77.7" fill="none" stroke="#231f20" stroke-linecap="round" stroke-linejoin="round" stroke-width=".25"/><path d="m421.89,130.15c9.78,8.19,18.24,18.11,24.01,29.53" fill="none" stroke="#231f20" stroke-linecap="round" stroke-linejoin="round" stroke-width=".25"/><path d="m134.47,225.17c-5.12-15.15-2.83-31.74,2.89-46.05,4.58-10.87,12.59-20.6,20.76-29.2" fill="none" stroke="#231f20" stroke-linecap="round" stroke-linejoin="round" stroke-width=".25"/><path d="m304.62,293.91c-17.89.94-35.86.76-53.68-1.19-16.95-1.86-33.78-5.31-49.87-11.02-8.98-3.19-17.71-7.08-26.03-11.73" fill="none" stroke="#231f20" stroke-linecap="round" stroke-linejoin="round" stroke-width=".25"/><path d="m443.14,218.15c-6.16,13.85-15.91,26.09-27.44,35.85-12.15,10.28-26.27,17.63-40.65,24.28-2.13.98-4.39,1.3-6.56,2.14-2.18.84-4.28,1.85-6.5,2.61-4.6,1.58-9.33,2.79-13.99,4.18" fill="none" stroke="#231f20" stroke-linecap="round" stroke-linejoin="round" stroke-width=".25"/><path d="m409.17,122.98c14.35,8.07,26.37,20.66,33.74,35.67" fill="none" stroke="#231f20" stroke-linecap="round" stroke-linejoin="round" stroke-width=".25"/><path d="m139.29,219.99c-3.69-8.3-5.06-17.51-4.03-26.54,1.39-12.08,6.95-23.28,14.34-32.81,4.82-6.22,10.44-11.8,16.49-16.82" fill="none" stroke="#231f20" stroke-linecap="round" stroke-linejoin="round" stroke-width=".25"/><path d="m295.11,275.5c-36.99,2.05-75.91-1.95-110.32-16.67" fill="none" stroke="#231f20" stroke-linecap="round" stroke-linejoin="round" stroke-width=".25"/><path d="m433.98,213.91c-7.61,12.02-19,22.02-30.67,29.98-12.27,8.36-25.83,14.61-39.89,19.3-7.92,2.65-15.99,4.81-24.12,6.68" fill="none" stroke="#231f20" stroke-linecap="round" stroke-linejoin="round" stroke-width=".25"/><path d="m400.32,118.8c16.34,8.23,32.36,20.82,39.45,38.46" fill="none" stroke="#231f20" stroke-linecap="round" stroke-linejoin="round" stroke-width=".25"/><path d="m266.52,104.82c1.42-.22,2.84-.43,4.28-.62" fill="none" stroke="#231f20" stroke-linecap="round" stroke-linejoin="round" stroke-width=".25"/><path d="m152.86,205.87c-6.34-7.29-9.2-17.59-8.05-27.32,1.14-8.01,4.58-15.45,9.73-21.75,28.62-33.19,71.54-44.64,111.99-51.98" fill="none" stroke="#231f20" stroke-linecap="round" stroke-linejoin="round" stroke-width=".25"/><path d="m279.18,240.7c-23.34-.34-47.38-.92-70.31-6.55" fill="none" stroke="#231f20" stroke-linecap="round" stroke-linejoin="round" stroke-width=".25"/><path d="m407.54,202.59c-9.15,7.67-19.49,13.81-30.38,18.68s-22.43,8.53-34.06,11.38c-6.56,1.61-13.17,2.96-19.81,4.15" fill="none" stroke="#231f20" stroke-linecap="round" stroke-linejoin="round" stroke-width=".25"/><path d="m290.2,102.13c24.1-1.5,49.4-1.66,73,4.05,17.48,4.23,35.67,9.58,49.82,21.18,8.25,6.76,15.53,16,17.8,26.6" fill="none" stroke="#231f20" stroke-linecap="round" stroke-linejoin="round" stroke-width=".25"/><path d="m173.9,187.02c-3.96-5.3-6.18-11.71-5.93-18.35.27-7.18,3.3-13.93,7.47-19.67,5.24-7.23,12.2-13.12,19.57-18.07,9.11-6.13,19.08-10.94,29.32-14.85,12.01-4.59,24.48-7.93,37.12-10.28,1.66-.31,3.32-.6,4.98-.87" fill="none" stroke="#231f20" stroke-linecap="round" stroke-linejoin="round" stroke-width=".25"/><path d="m269.07,216.71c-13.54-.2-27.1-1.22-40.44-3.64" fill="none" stroke="#231f20" stroke-linecap="round" stroke-linejoin="round" stroke-width=".25"/><path d="m380.16,190.04c-15.03,10.79-32.82,16.8-50.73,20.75-5.53,1.22-11.1,2.25-16.69,3.18" fill="none" stroke="#231f20" stroke-linecap="round" stroke-linejoin="round" stroke-width=".25"/><path d="m290.17,102.19c17.04-1.07,34.28-1.12,51.15,1.83,17.04,2.97,33.97,9.14,48.05,19.36,7.41,5.38,13.31,12.9,15.41,21.95" fill="none" stroke="#231f20" stroke-linecap="round" stroke-linejoin="round" stroke-width=".25"/><path d="m143.76,321.82c0,3.07-.01,6.14-.02,9.21" fill="none" stroke="#231f20" stroke-linecap="round" stroke-linejoin="round" stroke-width=".25"/><path d="m151.25,330.23c-.04,5.87-.05,11.75-.06,17.62" fill="none" stroke="#231f20" stroke-linecap="round" stroke-linejoin="round" stroke-width=".25"/><path d="m159.13,338.49c.03,9.02.03,18.04.02,27.07" fill="none" stroke="#231f20" stroke-linecap="round" stroke-linejoin="round" stroke-width=".25"/><path d="m166.61,345.55c0,8.65,0,17.29,0,25.94" fill="none" stroke="#231f20" stroke-linecap="round" stroke-linejoin="round" stroke-width=".25"/><path d="m174.07,348.5c0,9.46,0,18.93.01,28.39" fill="none" stroke="#231f20" stroke-linecap="round" stroke-linejoin="round" stroke-width=".25"/><path d="m182.03,356.27c0,9.01-.02,18.02-.05,27.03" fill="none" stroke="#231f20" stroke-linecap="round" stroke-linejoin="round" stroke-width=".25"/><path d="m189.49,358.73c0,12.85,0,25.7-.04,38.54" fill="none" stroke="#231f20" stroke-linecap="round" stroke-linejoin="round" stroke-width=".25"/><path d="m196.96,361.37c0,13.69,0,27.37.03,41.06" fill="none" stroke="#231f20" stroke-linecap="round" stroke-linejoin="round" stroke-width=".25"/><path d="m204.41,364.54c-.02,13.95.01,27.89.14,41.84" fill="none" stroke="#231f20" stroke-linecap="round" stroke-linejoin="round" stroke-width=".25"/><path d="m212.36,370.24c0,12.73-.04,25.46-.09,38.19" fill="none" stroke="#231f20" stroke-linecap="round" stroke-linejoin="round" stroke-width=".25"/><path d="m219.84,373.78c0,12.96,0,25.93-.01,38.89" fill="none" stroke="#231f20" stroke-linecap="round" stroke-linejoin="round" stroke-width=".25"/><path d="m227.32,373.44c0,13.91.04,27.83.1,41.74" fill="none" stroke="#231f20" stroke-linecap="round" stroke-linejoin="round" stroke-width=".25"/><path d="m235.22,377.15c-.02,12.88-.07,25.75-.16,38.63" fill="none" stroke="#231f20" stroke-linecap="round" stroke-linejoin="round" stroke-width=".25"/><path d="m242.71,379.34c0,13.59-.03,27.18-.06,40.77" fill="none" stroke="#231f20" stroke-linecap="round" stroke-linejoin="round" stroke-width=".25"/><path d="m250.19,380.76c0,13.55.02,27.1.05,40.66" fill="none" stroke="#231f20" stroke-linecap="round" stroke-linejoin="round" stroke-width=".25"/><path d="m257.64,382.8c-.01,13.47.03,26.93.19,40.4" fill="none" stroke="#231f20" stroke-linecap="round" stroke-linejoin="round" stroke-width=".25"/><path d="m265.57,381.96c-.01,13.96-.05,27.93-.12,41.89" fill="none" stroke="#231f20" stroke-linecap="round" stroke-linejoin="round" stroke-width=".25"/><path d="m273.06,383.29c0,13.64,0,27.28,0,40.93" fill="none" stroke="#231f20" stroke-linecap="round" stroke-linejoin="round" stroke-width=".25"/><path d="m280.55,382.45c.01,13.71.05,27.42.11,41.13" fill="none" stroke="#231f20" stroke-linecap="round" stroke-linejoin="round" stroke-width=".25"/><path d="m288.45,382.66c-.02,13.94-.07,27.88-.15,41.81" fill="none" stroke="#231f20" stroke-linecap="round" stroke-linejoin="round" stroke-width=".25"/><path d="m295.93,378.94c0,15.1-.03,30.2-.06,45.3" fill="none" stroke="#231f20" stroke-linecap="round" stroke-linejoin="round" stroke-width=".25"/><path d="m303.42,378.96c0,15.01.03,30.01.06,45.02" fill="none" stroke="#231f20" stroke-linecap="round" stroke-linejoin="round" stroke-width=".25"/><path d="m310.9,380.74c.02,15.16.07,30.32.17,45.48" fill="none" stroke="#231f20" stroke-linecap="round" stroke-linejoin="round" stroke-width=".25"/><path d="m318.8,378.05c-.01,15.04-.05,30.09-.12,45.13" fill="none" stroke="#231f20" stroke-linecap="round" stroke-linejoin="round" stroke-width=".25"/><path d="m326.29,377.38c0,14.29,0,28.57,0,42.86" fill="none" stroke="#231f20" stroke-linecap="round" stroke-linejoin="round" stroke-width=".25"/><path d="m333.77,376.99c0,14.77.04,29.55.1,44.32" fill="none" stroke="#231f20" stroke-linecap="round" stroke-linejoin="round" stroke-width=".25"/><path d="m341.68,373.35c-.01,15.44-.07,30.87-.18,46.31" fill="none" stroke="#231f20" stroke-linecap="round" stroke-linejoin="round" stroke-width=".25"/><path d="m349.16,372.12c0,15.4-.02,30.8-.05,46.2" fill="none" stroke="#231f20" stroke-linecap="round" stroke-linejoin="round" stroke-width=".25"/><path d="m356.63,378.17c0,13.33.01,26.67.08,40" fill="none" stroke="#231f20" stroke-linecap="round" stroke-linejoin="round" stroke-width=".25"/><path d="m364.13,380.34c.02,11.82.08,23.63.16,35.45" fill="none" stroke="#231f20" stroke-linecap="round" stroke-linejoin="round" stroke-width=".25"/><path d="m372.03,379.24c-.01,10.13-.04,20.25-.08,30.38" fill="none" stroke="#231f20" stroke-linecap="round" stroke-linejoin="round" stroke-width=".25"/><path d="m379.52,374.51c0,11.43,0,22.86,0,34.29" fill="none" stroke="#231f20" stroke-linecap="round" stroke-linejoin="round" stroke-width=".25"/><path d="m386.98,357.89c-.01,14.58,0,29.16.05,43.74" fill="none" stroke="#231f20" stroke-linecap="round" stroke-linejoin="round" stroke-width=".25"/><path d="m394.92,356.93c.01,14.15-.02,28.31-.09,42.46" fill="none" stroke="#231f20" stroke-linecap="round" stroke-linejoin="round" stroke-width=".25"/><path d="m402.39,350.31c0,11.02,0,15.88-.02,26.9" fill="none" stroke="#231f20" stroke-linecap="round" stroke-linejoin="round" stroke-width=".25"/><path d="m409.87,348.97c0,4.26,0,8.52,0,12.79" fill="none" stroke="#231f20" stroke-linecap="round" stroke-linejoin="round" stroke-width=".25"/><path d="m417.32,342.16c-.01,4.13-.02,8.25-.02,12.38" fill="none" stroke="#231f20" stroke-linecap="round" stroke-linejoin="round" stroke-width=".25"/><path d="m425.26,335.7c.02,5.84.02,11.67.02,17.51" fill="none" stroke="#231f20" stroke-linecap="round" stroke-linejoin="round" stroke-width=".25"/><path d="m432.74,331.34c0,8.37,0,16.73,0,25.1" fill="none" stroke="#231f20" stroke-linecap="round" stroke-linejoin="round" stroke-width=".25"/><path d="m440.27,329.43c-.05,10.15-.06,20.3-.05,30.45" fill="none" stroke="#231f20" stroke-linecap="round" stroke-linejoin="round" stroke-width=".25"/><path d="m448.14,310.47c.04,12.81.02,25.62-.01,38.43" fill="none" stroke="#231f20" stroke-linecap="round" stroke-linejoin="round" stroke-width=".25"/><path d="m455.61,307.57c0,5.59,0,11.18,0,16.77" fill="none" stroke="#231f20" stroke-linecap="round" stroke-linejoin="round" stroke-width=".25"/><path d="m463.18,282.41c-.05,9.12-.08,18.23-.09,27.35" fill="none" stroke="#231f20" stroke-linecap="round" stroke-linejoin="round" stroke-width=".25"/></svg>