<?xml version="1.0" encoding="UTF-8"?><svg xmlns="http://www.w3.org/2000/svg" viewBox="0 0 600 600"><g id="Layer_4"><path d="m206.17,481.1h10.73v2.29h-8v4.47h7.1v2.31h-7.1v5.63h-2.73v-14.7Z" fill="#231f20"/><path d="m218.92,481.16c0-.88.71-1.58,1.7-1.58s1.68.65,1.68,1.51c0,.92-.69,1.64-1.68,1.64s-1.7-.69-1.7-1.57Zm.38,3.42h2.62v11.21h-2.62v-11.21Z" fill="#231f20"/><path d="m224.99,498.42l1.18-1.97c.99.82,2.58,1.34,4.14,1.34,2.48,0,3.57-1.13,3.57-3.4v-.59c-.92,1.01-2.25,1.49-3.76,1.49-3.21,0-5.67-2.18-5.67-5.44s2.46-5.4,5.67-5.4c1.57,0,2.96.5,3.88,1.62v-1.49h2.5v9.51c0,4.07-2.12,5.92-6.05,5.92-2.1,0-4.18-.55-5.46-1.6Zm8.92-8.57c0-1.89-1.43-3.17-3.4-3.17s-3.42,1.28-3.42,3.17,1.43,3.21,3.42,3.21,3.4-1.3,3.4-3.21Z" fill="#231f20"/><path d="m239.06,494.2c0-1.05.78-1.74,1.72-1.74s1.72.69,1.72,1.74-.78,1.74-1.72,1.74-1.72-.74-1.72-1.74Z" fill="#231f20"/><path d="m249.87,493.97l5.84-5.54c1.43-1.37,1.68-2.23,1.68-3.04,0-1.34-.92-2.12-2.73-2.12-1.43,0-2.62.48-3.44,1.53l-1.91-1.47c1.13-1.53,3.17-2.44,5.58-2.44,3.19,0,5.25,1.62,5.25,4.22,0,1.43-.4,2.73-2.44,4.64l-3.95,3.74h6.95v2.31h-10.83v-1.83Z" fill="#231f20"/><path d="m268.31,488.87h5.77v2.18h-5.77v-2.18Z" fill="#231f20"/><path d="m283.01,481.1h10.73v2.29h-8v4.47h7.1v2.31h-7.1v5.63h-2.73v-14.7Z" fill="#231f20"/><path d="m295.93,484.59h2.5v1.64c.76-1.18,2.12-1.76,3.99-1.76v2.5c-.23-.04-.42-.06-.61-.06-1.99,0-3.25,1.18-3.25,3.46v5.44h-2.62v-11.21Z" fill="#231f20"/><path d="m303.61,490.19c0-3.36,2.52-5.73,5.96-5.73s5.98,2.37,5.98,5.73-2.5,5.75-5.98,5.75-5.96-2.39-5.96-5.75Zm9.3,0c0-2.14-1.43-3.51-3.34-3.51s-3.32,1.37-3.32,3.51,1.43,3.51,3.32,3.51,3.34-1.36,3.34-3.51Z" fill="#231f20"/><path d="m318.08,484.59h2.5v1.45c.86-1.03,2.23-1.58,3.86-1.58,2.69,0,4.68,1.53,4.68,4.91v6.42h-2.62v-6.09c0-1.99-.99-2.96-2.67-2.96-1.87,0-3.13,1.13-3.13,3.38v5.67h-2.62v-11.21Z" fill="#231f20"/><path d="m332.82,492.17v-5.48h-1.85v-2.1h1.85v-2.48h2.62v2.48h3v2.1h-3v5.42c0,1.09.55,1.68,1.55,1.68.55,0,1.07-.15,1.47-.46l.73,1.87c-.63.5-1.57.76-2.52.76-2.46,0-3.86-1.3-3.86-3.78Z" fill="#231f20"/><path d="m345.34,484.59h2.73l3.49,8.31,3.59-8.31h2.52l-4.81,11.21h-2.71l-4.81-11.21Z" fill="#231f20"/><path d="m358.93,481.16c0-.88.71-1.58,1.7-1.58s1.68.65,1.68,1.51c0,.92-.69,1.64-1.68,1.64s-1.7-.69-1.7-1.57Zm.38,3.42h2.62v11.21h-2.62v-11.21Z" fill="#231f20"/><path d="m364.45,490.19c0-3.34,2.46-5.73,5.79-5.73s5.67,2.29,5.67,5.79c0,.21-.02.53-.04.78h-8.8c.31,1.64,1.68,2.69,3.63,2.69,1.26,0,2.25-.4,3.04-1.22l1.41,1.62c-1.01,1.2-2.58,1.83-4.51,1.83-3.76,0-6.19-2.42-6.19-5.75Zm8.97-.9c-.21-1.62-1.45-2.73-3.17-2.73s-2.94,1.09-3.19,2.73h6.36Z" fill="#231f20"/><path d="m376.59,484.59h2.48l2.96,8.27,3.09-8.27h2.2l3.02,8.29,3.04-8.29h2.33l-4.14,11.21h-2.52l-2.9-7.75-2.94,7.75h-2.52l-4.12-11.21Z" fill="#231f20"/></g><g id="art_lines"><path d="m299.99,195.71c92.17-.36,162.67-5.72,175.62-13.44" fill="none" stroke="#231f20" stroke-linecap="round" stroke-linejoin="round"/><path d="m477.64,186.11c-7.14,4.25-27.41,7.5-60.93,10.03-31.52,2.38-71.87,3.73-116.7,3.91" fill="none" stroke="#231f20" stroke-linecap="round" stroke-linejoin="round"/><path d="m475.68,209.94c-19.15,8.13-89.85,15.75-175.67,16.08" fill="none" stroke="#231f20" stroke-linecap="round" stroke-linejoin="round"/><path d="m300,256.17c82.51-.32,149.39-11.73,170.15-19.44" fill="none" stroke="#231f20" stroke-linecap="round" stroke-linejoin="round"/><path d="m476.2,258.71c-2.35,1.99-6.54,3.9-12.81,5.88-9.06,2.86-22.1,5.68-37.7,8.15-35.76,5.66-80.39,8.97-125.67,9.3" fill="none" stroke="#231f20" stroke-linecap="round" stroke-linejoin="round"/><path d="m300.02,277.71c44.31-.33,88.12-3.52,123.42-9,15.31-2.38,28.22-5.09,37.33-7.85,12.62-3.82,15.6-7.21,15.61-7.23" fill="none" stroke="#231f20" stroke-linecap="round" stroke-linejoin="round"/><path d="m300,351.63c12.16-.02,23.47-1.66,32.1-3.82,6.12-1.54,13.27-4.08,12.09-7.3-.4-1.09-1.33-2.02-2.4-2.48" fill="none" stroke="#231f20" stroke-linecap="round" stroke-linejoin="round"/><path d="m315.44,332.8c11.44.93,20.89,2.84,26.48,5.29" fill="none" stroke="#231f20" stroke-linecap="round" stroke-linejoin="round"/><path d="m315.01,335.06c5.08,1.08,8.46,3.1,8.46,5.12,0,3.72-10.51,6.73-23.47,6.73" fill="none" stroke="#231f20" stroke-linecap="round" stroke-linejoin="round"/><path d="m473.75,328.56c1.73,2.4,2.63,4.87,2.63,7.38,0,23.47-78.25,42.61-176.37,43.6" fill="none" stroke="#231f20" stroke-linecap="round" stroke-linejoin="round"/><path d="m475.12,341.06c3.57,28.83-72.84,49.9-175.12,50.3" fill="none" stroke="#231f20" stroke-linecap="round" stroke-linejoin="round"/><path d="m300,144.92c84.9.89,155.43,16.58,175.85,37.59,2.62,2.98,2.84,9.71,2.84,14.23,0,8.35-.63,9.77-7.78,20.99-1.88,3.56-4.07,11.08-1.58,17.13,2.48,6.05,7.25,12.55,7.05,18.77l-2.82,80.36c-.85,23.4-76.69,42.16-173.56,43.15" fill="none" stroke="#231f20" stroke-linecap="round" stroke-linejoin="round"/><path d="m341.92,338.09c7.24,2.81,10.45,10.53,9.24,18.71-1.55,10.5-22.68,16.86-51.16,16.86" fill="none" stroke="#231f20" stroke-linecap="round" stroke-linejoin="round"/><path d="m314.37,338.03l.96-4.47c.1-.46.11-.95.01-1.41-.87-3.92-7.41-6.96-15.34-6.96" fill="none" stroke="#231f20" stroke-linecap="round" stroke-linejoin="round"/><path d="m300,330.69c7.94,0,14.38,3.16,14.38,7.05s-6.44,7.05-14.38,7.05" fill="none" stroke="#231f20" stroke-linecap="round" stroke-linejoin="round"/><path d="m300.01,195.71c-92.17-.36-162.67-5.72-175.62-13.44" fill="none" stroke="#231f20" stroke-linecap="round" stroke-linejoin="round"/><path d="m122.36,186.11c7.14,4.25,27.41,7.5,60.93,10.03,31.52,2.38,71.87,3.73,116.7,3.91" fill="none" stroke="#231f20" stroke-linecap="round" stroke-linejoin="round"/><path d="m124.32,209.94c19.15,8.13,89.85,15.75,175.67,16.08" fill="none" stroke="#231f20" stroke-linecap="round" stroke-linejoin="round"/><path d="m300,256.17c-82.51-.32-149.39-11.73-170.15-19.44" fill="none" stroke="#231f20" stroke-linecap="round" stroke-linejoin="round"/><path d="m123.8,258.71c2.35,1.99,6.54,3.9,12.81,5.88,9.06,2.86,22.1,5.68,37.7,8.15,35.76,5.66,80.39,8.97,125.67,9.3" fill="none" stroke="#231f20" stroke-linecap="round" stroke-linejoin="round"/><path d="m299.98,277.71c-44.31-.33-88.12-3.52-123.42-9-15.31-2.38-28.22-5.09-37.33-7.85-12.62-3.82-15.6-7.21-15.61-7.23" fill="none" stroke="#231f20" stroke-linecap="round" stroke-linejoin="round"/><path d="m300,351.63c-12.16-.02-23.47-1.66-32.1-3.82-6.12-1.54-13.27-4.08-12.09-7.3.4-1.09,1.33-2.02,2.4-2.48" fill="none" stroke="#231f20" stroke-linecap="round" stroke-linejoin="round"/><path d="m284.56,332.8c-11.44.93-20.89,2.84-26.48,5.29" fill="none" stroke="#231f20" stroke-linecap="round" stroke-linejoin="round"/><path d="m284.99,335.06c-5.08,1.08-8.46,3.1-8.46,5.12,0,3.72,10.51,6.73,23.47,6.73" fill="none" stroke="#231f20" stroke-linecap="round" stroke-linejoin="round"/><path d="m126.25,328.56c-1.73,2.4-2.63,4.87-2.63,7.38,0,23.47,78.25,42.61,176.37,43.6" fill="none" stroke="#231f20" stroke-linecap="round" stroke-linejoin="round"/><path d="m124.88,341.06c-3.57,28.83,72.84,49.9,175.12,50.3" fill="none" stroke="#231f20" stroke-linecap="round" stroke-linejoin="round"/><path d="m300,144.92c-84.9.89-155.43,16.58-175.85,37.59-2.62,2.98-2.84,9.71-2.84,14.23,0,8.35.63,9.77,7.78,20.99,1.88,3.56,4.07,11.08,1.58,17.13-2.48,6.05-7.25,12.55-7.05,18.77l2.82,80.36c.85,23.4,76.69,42.16,173.56,43.15" fill="none" stroke="#231f20" stroke-linecap="round" stroke-linejoin="round"/><path d="m258.08,338.09c-7.24,2.81-10.45,10.53-9.24,18.71,1.55,10.5,22.68,16.86,51.16,16.86" fill="none" stroke="#231f20" stroke-linecap="round" stroke-linejoin="round"/><path d="m285.63,338.03l-.96-4.47c-.1-.46-.11-.95-.01-1.41.87-3.92,7.41-6.96,15.34-6.96" fill="none" stroke="#231f20" stroke-linecap="round" stroke-linejoin="round"/><path d="m300,330.69c-7.94,0-14.38,3.16-14.38,7.05,0,3.89,6.44,7.05,14.38,7.05" fill="none" stroke="#231f20" stroke-linecap="round" stroke-linejoin="round"/><path d="m320.51,334.74c1.99,0,3.98,0,5.97,0" fill="none" stroke="#231f20" stroke-linecap="round" stroke-linejoin="round" stroke-width=".25"/><path d="m274.76,334.73c1.99,0,3.98,0,5.97,0" fill="none" stroke="#231f20" stroke-linecap="round" stroke-linejoin="round" stroke-width=".25"/><path d="m324.17,337.61c3.52,0,7.04,0,10.57,0" fill="none" stroke="#231f20" stroke-linecap="round" stroke-linejoin="round" stroke-width=".25"/><path d="m266.71,337.63c3.08,0,6.16,0,9.25,0" fill="none" stroke="#231f20" stroke-linecap="round" stroke-linejoin="round" stroke-width=".25"/><path d="m324.78,340.48c4.85,0,9.71.02,14.56.03" fill="none" stroke="#231f20" stroke-linecap="round" stroke-linejoin="round" stroke-width=".25"/><path d="m263.21,340.53c4.19-.01,8.39-.02,12.58-.03" fill="none" stroke="#231f20" stroke-linecap="round" stroke-linejoin="round" stroke-width=".25"/><path d="m324.3,343.35c4.6.01,9.21.03,13.81.04" fill="none" stroke="#231f20" stroke-linecap="round" stroke-linejoin="round" stroke-width=".25"/><path d="m260.75,343.44c5.3-.03,10.59-.05,15.89-.07" fill="none" stroke="#231f20" stroke-linecap="round" stroke-linejoin="round" stroke-width=".25"/><path d="m316.41,346.2c5.33.01,10.67.03,16,.06" fill="none" stroke="#231f20" stroke-linecap="round" stroke-linejoin="round" stroke-width=".25"/><path d="m265.8,346.3c5.9-.04,11.81-.06,17.71-.08" fill="none" stroke="#231f20" stroke-linecap="round" stroke-linejoin="round" stroke-width=".25"/><path d="m278.45,349.12c13.42-.07,26.84-.09,40.25-.05" fill="none" stroke="#231f20" stroke-linecap="round" stroke-linejoin="round" stroke-width=".25"/><path d="m137.53,269.46c-.04,4.9-.07,19.31-.09,24.21" fill="none" stroke="#231f20" stroke-linecap="round" stroke-linejoin="round" stroke-width=".25"/><path d="m144.7,270.89c-.08,6.2-.14,21.91-.16,28.12" fill="none" stroke="#231f20" stroke-linecap="round" stroke-linejoin="round" stroke-width=".25"/><path d="m151.09,272.6c.17,7.08.28,23.68.3,30.76" fill="none" stroke="#231f20" stroke-linecap="round" stroke-linejoin="round" stroke-width=".25"/><path d="m157.43,273.99c0,8.12,0,25.75,0,33.87" fill="none" stroke="#231f20" stroke-linecap="round" stroke-linejoin="round" stroke-width=".25"/><path d="m164.43,275.68c0,8.79,0,27.09,0,35.88" fill="none" stroke="#231f20" stroke-linecap="round" stroke-linejoin="round" stroke-width=".25"/><path d="m171.49,277.33c.08,9.63.08,28.76.02,38.39" fill="none" stroke="#231f20" stroke-linecap="round" stroke-linejoin="round" stroke-width=".25"/><path d="m178.52,278.86c.1,10.28.11,30.07,0,40.36" fill="none" stroke="#231f20" stroke-linecap="round" stroke-linejoin="round" stroke-width=".25"/><path d="m185.54,280.94c.12,10.72.15,30.95.09,41.68" fill="none" stroke="#231f20" stroke-linecap="round" stroke-linejoin="round" stroke-width=".25"/><path d="m192.58,282.03c.15,11.41.18,32.32.08,43.73" fill="none" stroke="#231f20" stroke-linecap="round" stroke-linejoin="round" stroke-width=".25"/><path d="m199.62,283.49c.2,11.99.22,33.49.06,45.48" fill="none" stroke="#231f20" stroke-linecap="round" stroke-linejoin="round" stroke-width=".25"/><path d="m206.68,285.87c.22,12.01.22,33.53,0,45.54" fill="none" stroke="#231f20" stroke-linecap="round" stroke-linejoin="round" stroke-width=".25"/><path d="m213.2,286.81c-.25,12.8-.22,35.1.06,47.9" fill="none" stroke="#231f20" stroke-linecap="round" stroke-linejoin="round" stroke-width=".25"/><path d="m295.34,295.12c.03,5.32.05,20.14.06,25.45" fill="none" stroke="#231f20" stroke-linecap="round" stroke-linejoin="round" stroke-width=".25"/><path d="m286.05,294.21c-.01,6.27-.02,22.04-.02,28.3" fill="none" stroke="#231f20" stroke-linecap="round" stroke-linejoin="round" stroke-width=".25"/><path d="m276.78,294.21c-.09,7.89-.13,25.29-.12,33.18" fill="none" stroke="#231f20" stroke-linecap="round" stroke-linejoin="round" stroke-width=".25"/><path d="m267.52,293.39c-.17,8.14-.25,25.8-.23,33.94" fill="none" stroke="#231f20" stroke-linecap="round" stroke-linejoin="round" stroke-width=".25"/><path d="m258.65,291.84c.12,9.88.17,29.27.13,39.15" fill="none" stroke="#231f20" stroke-linecap="round" stroke-linejoin="round" stroke-width=".25"/><path d="m249.4,290.62c.04,11.79.04,33.08.02,44.87" fill="none" stroke="#231f20" stroke-linecap="round" stroke-linejoin="round" stroke-width=".25"/><path d="m240.14,289.19c-.12,14.29-.11,38.08.01,52.37" fill="none" stroke="#231f20" stroke-linecap="round" stroke-linejoin="round" stroke-width=".25"/><path d="m230.83,289.39c-.24,13.81-.21,37.13.11,50.94" fill="none" stroke="#231f20" stroke-linecap="round" stroke-linejoin="round" stroke-width=".25"/><path d="m221.99,288.46c.29,13.17.27,35.86-.08,49.03" fill="none" stroke="#231f20" stroke-linecap="round" stroke-linejoin="round" stroke-width=".25"/><path d="m464.07,269.46c.04,4.9.07,19.31.09,24.21" fill="none" stroke="#231f20" stroke-linecap="round" stroke-linejoin="round" stroke-width=".25"/><path d="m456.91,270.89c.08,6.2.14,21.91.16,28.12" fill="none" stroke="#231f20" stroke-linecap="round" stroke-linejoin="round" stroke-width=".25"/><path d="m450.52,272.6c-.17,7.08-.28,23.68-.3,30.76" fill="none" stroke="#231f20" stroke-linecap="round" stroke-linejoin="round" stroke-width=".25"/><path d="m444.18,273.99c0,8.12,0,25.75,0,33.87" fill="none" stroke="#231f20" stroke-linecap="round" stroke-linejoin="round" stroke-width=".25"/><path d="m437.18,275.68c0,8.79,0,27.09,0,35.88" fill="none" stroke="#231f20" stroke-linecap="round" stroke-linejoin="round" stroke-width=".25"/><path d="m430.12,277.33c-.08,9.63-.08,28.76-.02,38.39" fill="none" stroke="#231f20" stroke-linecap="round" stroke-linejoin="round" stroke-width=".25"/><path d="m423.08,278.86c-.1,10.28-.11,30.07,0,40.36" fill="none" stroke="#231f20" stroke-linecap="round" stroke-linejoin="round" stroke-width=".25"/><path d="m416.06,280.94c-.12,10.72-.15,30.95-.09,41.68" fill="none" stroke="#231f20" stroke-linecap="round" stroke-linejoin="round" stroke-width=".25"/><path d="m409.02,282.03c-.15,11.41-.18,32.32-.08,43.73" fill="none" stroke="#231f20" stroke-linecap="round" stroke-linejoin="round" stroke-width=".25"/><path d="m401.98,283.49c-.2,11.99-.22,33.49-.06,45.48" fill="none" stroke="#231f20" stroke-linecap="round" stroke-linejoin="round" stroke-width=".25"/><path d="m394.93,285.87c-.22,12.01-.22,33.53,0,45.54" fill="none" stroke="#231f20" stroke-linecap="round" stroke-linejoin="round" stroke-width=".25"/><path d="m388.41,286.81c.25,12.8.22,35.1-.06,47.9" fill="none" stroke="#231f20" stroke-linecap="round" stroke-linejoin="round" stroke-width=".25"/><path d="m306.27,295.12c-.03,5.32-.05,20.14-.06,25.45" fill="none" stroke="#231f20" stroke-linecap="round" stroke-linejoin="round" stroke-width=".25"/><path d="m315.55,294.21c.01,6.27.02,22.04.02,28.3" fill="none" stroke="#231f20" stroke-linecap="round" stroke-linejoin="round" stroke-width=".25"/><path d="m324.83,294.21c.09,7.89.13,25.29.12,33.18" fill="none" stroke="#231f20" stroke-linecap="round" stroke-linejoin="round" stroke-width=".25"/><path d="m334.09,293.39c.17,8.14.25,25.8.23,33.94" fill="none" stroke="#231f20" stroke-linecap="round" stroke-linejoin="round" stroke-width=".25"/><path d="m342.95,291.84c-.12,9.88-.17,29.27-.13,39.15" fill="none" stroke="#231f20" stroke-linecap="round" stroke-linejoin="round" stroke-width=".25"/><path d="m352.21,290.62c-.04,11.79-.04,33.08-.02,44.87" fill="none" stroke="#231f20" stroke-linecap="round" stroke-linejoin="round" stroke-width=".25"/><path d="m361.47,289.19c.12,14.29.11,38.08-.01,52.37" fill="none" stroke="#231f20" stroke-linecap="round" stroke-linejoin="round" stroke-width=".25"/><path d="m370.77,289.39c.24,13.81.21,37.13-.11,50.94" fill="none" stroke="#231f20" stroke-linecap="round" stroke-linejoin="round" stroke-width=".25"/><path d="m379.62,288.46c-.29,13.17-.27,35.86.08,49.03" fill="none" stroke="#231f20" stroke-linecap="round" stroke-linejoin="round" stroke-width=".25"/><path d="m270.37,354.15c-.1,4.75-.21,9.5-.31,14.25" fill="none" stroke="#231f20" stroke-linecap="round" stroke-linejoin="round" stroke-width=".25"/><path d="m275.41,354.73c-.11,4.83-.21,9.66-.32,14.49" fill="none" stroke="#231f20" stroke-linecap="round" stroke-linejoin="round" stroke-width=".25"/><path d="m280.43,355.65c-.1,4.56-.2,9.11-.3,13.67" fill="none" stroke="#231f20" stroke-linecap="round" stroke-linejoin="round" stroke-width=".25"/><path d="m285.47,356.05c-.1,4.49-.2,8.99-.3,13.48" fill="none" stroke="#231f20" stroke-linecap="round" stroke-linejoin="round" stroke-width=".25"/><path d="m290.51,356.27c-.1,4.47-.2,8.94-.3,13.41" fill="none" stroke="#231f20" stroke-linecap="round" stroke-linejoin="round" stroke-width=".25"/><path d="m295.56,356.34c-.09,4.2-.19,8.4-.28,12.6" fill="none" stroke="#231f20" stroke-linecap="round" stroke-linejoin="round" stroke-width=".25"/><path d="m300.59,356.99c-.09,3.98-.18,7.96-.26,11.94" fill="none" stroke="#231f20" stroke-linecap="round" stroke-linejoin="round" stroke-width=".25"/><path d="m305.63,357.11c-.09,3.98-.18,7.96-.26,11.94" fill="none" stroke="#231f20" stroke-linecap="round" stroke-linejoin="round" stroke-width=".25"/><path d="m310.69,356.37c-.09,4.26-.19,8.53-.28,12.79" fill="none" stroke="#231f20" stroke-linecap="round" stroke-linejoin="round" stroke-width=".25"/><path d="m315.74,356.48c-.09,4.26-.19,8.53-.28,12.79" fill="none" stroke="#231f20" stroke-linecap="round" stroke-linejoin="round" stroke-width=".25"/><path d="m320.8,355.74c-.09,4.26-.19,8.53-.28,12.79" fill="none" stroke="#231f20" stroke-linecap="round" stroke-linejoin="round" stroke-width=".25"/><path d="m325.87,354.49c-.11,4.76-.21,9.52-.32,14.28" fill="none" stroke="#231f20" stroke-linecap="round" stroke-linejoin="round" stroke-width=".25"/><path d="m150.06,175.87c26.59-11.23,57.44-18.06,82.34-21.38,49.44-6.59,96.64-6.38,146.21.05,25.7,3.67,49.65,8.2,72.06,21.19" fill="none" stroke="#231f20" stroke-linecap="round" stroke-linejoin="round" stroke-width=".25"/><path d="m159.9,177.9c35.62-11.62,72.7-18.83,110.09-21.16,37.7-2.35,75.08,0,112.38,5.65,19.13,2.9,38.27,6.9,56.14,14.51" fill="none" stroke="#231f20" stroke-linecap="round" stroke-linejoin="round" stroke-width=".25"/><path d="m170.02,180.29c82.82-24.84,172.78-23.92,255.54-1.39" fill="none" stroke="#231f20" stroke-linecap="round" stroke-linejoin="round" stroke-width=".25"/><path d="m179.25,183.73c29.65-9.37,52.16-11.65,82.91-14.17,12.61-1.03,37.52-1.83,52.7-1.47,15.28.37,32.52,2.4,47.72,4.09,17.06,1.89,34.03,4.82,50.62,9.26" fill="none" stroke="#231f20" stroke-linecap="round" stroke-linejoin="round" stroke-width=".25"/><path d="m189.12,187.54c26.8-6.5,54.22-10.32,81.76-11.71,27.21-1.37,54.52-.37,81.58,2.67,15.35,1.72,30.62,4.09,45.77,7.06" fill="none" stroke="#231f20" stroke-linecap="round" stroke-linejoin="round" stroke-width=".25"/><path d="m241.41,187.54c11.91-1.55,23.89-2.62,35.89-3.22,27.21-1.37,54.52-.37,81.58,2.67" fill="none" stroke="#231f20" stroke-linecap="round" stroke-linejoin="round" stroke-width=".25"/><path d="m271.24,193.08c2.02-.13,4.04-.24,6.06-.34,18.25-.92,36.54-.77,54.78.34" fill="none" stroke="#231f20" stroke-linecap="round" stroke-linejoin="round" stroke-width=".25"/></g></svg>