<?xml version="1.0" encoding="UTF-8"?><svg xmlns="http://www.w3.org/2000/svg" viewBox="0 0 600 600"><g id="Layer_4"><path d="m189.03,481.1h10.73v2.29h-8v4.47h7.1v2.31h-7.1v5.63h-2.73v-14.7Z" fill="#231f20"/><path d="m201.77,481.16c0-.88.71-1.58,1.7-1.58s1.68.65,1.68,1.51c0,.92-.69,1.64-1.68,1.64s-1.7-.69-1.7-1.57Zm.38,3.42h2.62v11.21h-2.62v-11.21Z" fill="#231f20"/><path d="m207.84,498.42l1.18-1.97c.99.82,2.58,1.34,4.14,1.34,2.48,0,3.57-1.13,3.57-3.4v-.59c-.92,1.01-2.25,1.49-3.76,1.49-3.21,0-5.67-2.18-5.67-5.44s2.46-5.4,5.67-5.4c1.57,0,2.96.5,3.88,1.62v-1.49h2.5v9.51c0,4.07-2.12,5.92-6.05,5.92-2.1,0-4.18-.55-5.46-1.6Zm8.92-8.57c0-1.89-1.43-3.17-3.4-3.17s-3.42,1.28-3.42,3.17,1.43,3.21,3.42,3.21,3.4-1.3,3.4-3.21Z" fill="#231f20"/><path d="m221.91,494.2c0-1.05.78-1.74,1.72-1.74s1.72.69,1.72,1.74-.78,1.74-1.72,1.74-1.72-.74-1.72-1.74Z" fill="#231f20"/><path d="m240.92,483.41h-5.79v2.5h-2.54v-4.81h11.42v1.83l-5.71,12.87h-2.92l5.54-12.39Z" fill="#231f20"/><path d="m251.71,488.87h5.77v2.18h-5.77v-2.18Z" fill="#231f20"/><path d="m266.41,481.1h2.73v12.39h7.68v2.31h-10.41v-14.7Z" fill="#231f20"/><path d="m277.71,490.19c0-3.34,2.46-5.73,5.79-5.73s5.67,2.29,5.67,5.79c0,.21-.02.53-.04.78h-8.8c.31,1.64,1.68,2.69,3.63,2.69,1.26,0,2.25-.4,3.04-1.22l1.41,1.62c-1.01,1.2-2.58,1.83-4.51,1.83-3.76,0-6.19-2.42-6.19-5.75Zm8.97-.9c-.21-1.62-1.45-2.73-3.17-2.73s-2.94,1.09-3.19,2.73h6.36Z" fill="#231f20"/><path d="m292.05,486.77h-1.85v-2.1h1.85v-.71c0-2.35,1.41-3.88,4.01-3.88.9,0,1.78.19,2.37.61l-.73,1.97c-.4-.27-.9-.46-1.45-.46-1.09,0-1.66.61-1.66,1.81v.67h3.09v2.1h-3v9.03h-2.62v-9.03Z" fill="#231f20"/><path d="m299.8,492.17v-5.48h-1.85v-2.1h1.85v-2.48h2.62v2.48h3v2.1h-3v5.42c0,1.09.55,1.68,1.55,1.68.55,0,1.07-.15,1.47-.46l.73,1.87c-.63.5-1.57.76-2.52.76-2.46,0-3.86-1.3-3.86-3.78Z" fill="#231f20"/><path d="m312.86,494.69l1.01-2c.99.65,2.5,1.11,3.91,1.11,1.66,0,2.35-.46,2.35-1.24,0-2.14-6.93-.13-6.93-4.6,0-2.12,1.91-3.51,4.93-3.51,1.49,0,3.19.36,4.2.97l-1.01,2c-1.07-.63-2.14-.84-3.21-.84-1.6,0-2.35.52-2.35,1.26,0,2.27,6.93.25,6.93,4.64,0,2.1-1.93,3.46-5.08,3.46-1.87,0-3.74-.55-4.75-1.26Z" fill="#231f20"/><path d="m324.58,481.16c0-.88.71-1.58,1.7-1.58s1.68.65,1.68,1.51c0,.92-.69,1.64-1.68,1.64s-1.7-.69-1.7-1.57Zm.38,3.42h2.62v11.21h-2.62v-11.21Z" fill="#231f20"/><path d="m330.1,490.19c0-3.49,2.41-5.73,5.67-5.73,1.45,0,2.71.48,3.61,1.49v-5.73h2.62v15.58h-2.52v-1.47c-.88,1.09-2.18,1.62-3.72,1.62-3.25,0-5.67-2.27-5.67-5.75Zm9.32,0c0-2.14-1.45-3.51-3.34-3.51s-3.34,1.37-3.34,3.51,1.45,3.51,3.34,3.51,3.34-1.36,3.34-3.51Z" fill="#231f20"/><path d="m344.53,490.19c0-3.34,2.46-5.73,5.79-5.73s5.67,2.29,5.67,5.79c0,.21-.02.53-.04.78h-8.8c.31,1.64,1.68,2.69,3.63,2.69,1.26,0,2.25-.4,3.04-1.22l1.41,1.62c-1.01,1.2-2.58,1.83-4.51,1.83-3.76,0-6.19-2.42-6.19-5.75Zm8.97-.9c-.21-1.62-1.45-2.73-3.17-2.73s-2.94,1.09-3.19,2.73h6.36Z" fill="#231f20"/><path d="m362.49,484.59h2.73l3.49,8.31,3.59-8.31h2.52l-4.81,11.21h-2.71l-4.81-11.21Z" fill="#231f20"/><path d="m376.07,481.16c0-.88.71-1.58,1.7-1.58s1.68.65,1.68,1.51c0,.92-.69,1.64-1.68,1.64s-1.7-.69-1.7-1.57Zm.38,3.42h2.62v11.21h-2.62v-11.21Z" fill="#231f20"/><path d="m381.59,490.19c0-3.34,2.46-5.73,5.79-5.73s5.67,2.29,5.67,5.79c0,.21-.02.53-.04.78h-8.8c.31,1.64,1.68,2.69,3.63,2.69,1.26,0,2.25-.4,3.04-1.22l1.41,1.62c-1.01,1.2-2.58,1.83-4.51,1.83-3.76,0-6.19-2.42-6.19-5.75Zm8.97-.9c-.21-1.62-1.45-2.73-3.17-2.73s-2.94,1.09-3.19,2.73h6.36Z" fill="#231f20"/><path d="m393.73,484.59h2.48l2.96,8.27,3.09-8.27h2.2l3.02,8.29,3.04-8.29h2.33l-4.14,11.21h-2.52l-2.9-7.75-2.94,7.75h-2.52l-4.12-11.21Z" fill="#231f20"/></g><g id="art_lines"><path d="m146,292.01c-4.29-1.02-12.59-1.77-22.2-1.77-13.98,0-25.31,1.47-25.31,3.28s11.33,3.28,25.31,3.28c10.88,0,20.17-.89,23.74-2.14" fill="none" stroke="#231f20" stroke-linecap="round" stroke-linejoin="round"/><path d="m146.53,290.5c-6.05-.9-13.99-1.43-22.73-1.43-18.91,0-34.24,2.56-34.24,5.72s15.33,5.72,34.24,5.72c16.04,0,28.68-1.48,32.4-3.97" fill="none" stroke="#231f20" stroke-linecap="round" stroke-linejoin="round"/><path d="m164.2,285.65c-.13-.07-.27-.1-.4-.1-1.9.07-3.18,7.51-2.86,16.62.32,9.11,2.12,16.44,4.02,16.37.13,0,.26-.05.39-.12" fill="none" stroke="#231f20" stroke-linecap="round" stroke-linejoin="round"/><path d="m150.37,311.7c.44,1.84,1.17,3.05,2.43,3.69,1.01.52,6.91,1.68,7.72,1.88" fill="none" stroke="#231f20" stroke-linecap="round" stroke-linejoin="round"/><path d="m152.8,287.45c-1.1.12-2.08,2.86-2.62,6.95" fill="none" stroke="#231f20" stroke-linecap="round" stroke-linejoin="round"/><path d="m337.54,196.55c-91.09-.36-160.76-5.65-173.57-13.28" fill="none" stroke="#231f20" stroke-linecap="round" stroke-linejoin="round"/><path d="m161.97,187.07c7.05,4.2,27.09,7.41,60.22,9.91,31.15,2.35,71.03,3.69,115.33,3.86" fill="none" stroke="#231f20" stroke-linecap="round" stroke-linejoin="round"/><path d="m163.09,209.06c12.39,8.46,85.19,14.96,174.44,15.31" fill="none" stroke="#231f20" stroke-linecap="round" stroke-linejoin="round"/><path d="m169.15,237.55c21.71,8.07,88.15,18.65,168.38,18.96" fill="none" stroke="#231f20" stroke-linecap="round" stroke-linejoin="round"/><path d="m163.25,254.71c0,9.66,76.3,24.31,174.28,25.03" fill="none" stroke="#231f20" stroke-linecap="round" stroke-linejoin="round"/><path d="m165.81,327.85c-1.71,2.37-2.6,4.81-2.6,7.3,0,23.19,77.34,42.11,174.31,43.09" fill="none" stroke="#231f20" stroke-linecap="round" stroke-linejoin="round"/><path d="m164.46,340.21c-3.53,28.5,71.99,49.31,173.07,49.71" fill="none" stroke="#231f20" stroke-linecap="round" stroke-linejoin="round"/><path d="m337.53,146.36c-83.9.88-153.61,16.38-173.79,37.15-2.59,2.94-2.81,9.59-2.81,14.06,0,8.25.62,9.65,7.69,20.75,1.86,3.52,4.02,10.95,1.57,16.93-2.46,5.98-7.16,12.41-6.96,18.55l2.78,79.42c.84,23.13,75.79,41.67,171.53,42.64" fill="none" stroke="#231f20" stroke-linecap="round" stroke-linejoin="round"/><path d="m337.52,196.55c91.09-.36,160.76-5.65,173.57-13.28" fill="none" stroke="#231f20" stroke-linecap="round" stroke-linejoin="round"/><path d="m513.09,187.07c-7.05,4.2-27.09,7.41-60.22,9.91-31.15,2.35-71.03,3.69-115.33,3.86" fill="none" stroke="#231f20" stroke-linecap="round" stroke-linejoin="round"/><path d="m511.97,209.06c-12.39,8.46-85.19,14.96-174.44,15.31" fill="none" stroke="#231f20" stroke-linecap="round" stroke-linejoin="round"/><path d="m505.9,237.55c-21.71,8.07-88.15,18.65-168.38,18.96" fill="none" stroke="#231f20" stroke-linecap="round" stroke-linejoin="round"/><path d="m511.81,254.71c0,9.66-76.3,24.31-174.28,25.03" fill="none" stroke="#231f20" stroke-linecap="round" stroke-linejoin="round"/><path d="m509.24,327.85c1.71,2.37,2.6,4.81,2.6,7.3,0,23.19-77.34,42.11-174.31,43.09" fill="none" stroke="#231f20" stroke-linecap="round" stroke-linejoin="round"/><path d="m510.6,340.21c3.53,28.5-71.99,49.31-173.07,49.71" fill="none" stroke="#231f20" stroke-linecap="round" stroke-linejoin="round"/><path d="m337.53,146.36c83.9.88,153.61,16.38,173.79,37.15,2.59,2.94,2.81,9.59,2.81,14.06,0,8.25-.62,9.65-7.69,20.75-1.86,3.52-4.02,10.95-1.57,16.93,2.46,5.98,7.16,12.41,6.96,18.55l-2.78,79.42c-.84,23.13-75.79,41.67-171.53,42.64" fill="none" stroke="#231f20" stroke-linecap="round" stroke-linejoin="round"/><path d="m164.73,318.52c-1.84,0-3.57.08-5.21-2.49-1.64-2.57-6.87-4.24-9.48-4.27" fill="none" stroke="#231f20" stroke-linecap="round" stroke-linejoin="round"/><path d="m146.12,312.41c.48,1.34.9,1.73,1.64,1.96l4.55.72" fill="none" stroke="#231f20" stroke-linecap="round" stroke-linejoin="round"/><path d="m163.8,285.56c-2.27.27-8.73,1-15.97,3.25-.98.35-1.96,2.77-2.52,6.44" fill="none" stroke="#231f20" stroke-linecap="round" stroke-linejoin="round"/><path d="m147.54,294.67c1.62-.34,3.15-.32,4.49-.14,3.05.42,5.56,2.67,6.34,5.66.71,2.72,1.18,6.21-.14,8.44-1.61,2.72-15.52,5.07-34.43,5.28-3.49.04-6.99,0-10.48-.16-4.71-.22-9.44-.62-14.07-1.57-3.46-.71-7.16-1.66-10.02-3.84-3.56-2.71-4.58-8.7-1.67-12.23.78-.95,1.74-1.72,2.71-2.47" fill="none" stroke="#231f20" stroke-linecap="round" stroke-linejoin="round"/><path d="m495.9,272.6c.04,4.9.07,19.31.09,24.21" fill="none" stroke="#231f20" stroke-linecap="round" stroke-linejoin="round" stroke-width=".25"/><path d="m488.74,274.03c.08,6.2.14,21.91.16,28.12" fill="none" stroke="#231f20" stroke-linecap="round" stroke-linejoin="round" stroke-width=".25"/><path d="m482.35,275.74c-.17,7.08-.28,23.68-.3,30.76" fill="none" stroke="#231f20" stroke-linecap="round" stroke-linejoin="round" stroke-width=".25"/><path d="m476.01,277.14c0,8.12,0,25.75,0,33.87" fill="none" stroke="#231f20" stroke-linecap="round" stroke-linejoin="round" stroke-width=".25"/><path d="m469,278.82c0,8.79,0,27.09,0,35.88" fill="none" stroke="#231f20" stroke-linecap="round" stroke-linejoin="round" stroke-width=".25"/><path d="m461.95,280.48c-.08,9.63-.08,28.76-.02,38.39" fill="none" stroke="#231f20" stroke-linecap="round" stroke-linejoin="round" stroke-width=".25"/><path d="m454.91,282.01c-.1,10.28-.11,30.07,0,40.36" fill="none" stroke="#231f20" stroke-linecap="round" stroke-linejoin="round" stroke-width=".25"/><path d="m447.89,284.09c-.12,10.72-.15,30.95-.09,41.68" fill="none" stroke="#231f20" stroke-linecap="round" stroke-linejoin="round" stroke-width=".25"/><path d="m440.85,285.18c-.15,11.41-.18,32.32-.08,43.73" fill="none" stroke="#231f20" stroke-linecap="round" stroke-linejoin="round" stroke-width=".25"/><path d="m433.81,286.64c-.2,11.99-.22,33.49-.06,45.48" fill="none" stroke="#231f20" stroke-linecap="round" stroke-linejoin="round" stroke-width=".25"/><path d="m426.76,289.01c-.22,12.01-.22,33.53,0,45.54" fill="none" stroke="#231f20" stroke-linecap="round" stroke-linejoin="round" stroke-width=".25"/><path d="m420.23,289.95c.25,12.8.22,35.1-.06,47.9" fill="none" stroke="#231f20" stroke-linecap="round" stroke-linejoin="round" stroke-width=".25"/><path d="m338.1,298.26c-.03,5.32-.05,65.39-.06,70.7" fill="none" stroke="#231f20" stroke-linecap="round" stroke-linejoin="round" stroke-width=".25"/><path d="m347.38,297.36c.01,6.27.02,62.71.02,68.98" fill="none" stroke="#231f20" stroke-linecap="round" stroke-linejoin="round" stroke-width=".25"/><path d="m356.66,297.36c.09,7.89.13,56.19.12,64.08" fill="none" stroke="#231f20" stroke-linecap="round" stroke-linejoin="round" stroke-width=".25"/><path d="m365.92,296.53c.17,8.14.25,50.74.23,58.88" fill="none" stroke="#231f20" stroke-linecap="round" stroke-linejoin="round" stroke-width=".25"/><path d="m374.78,294.99c-.12,9.88-.17,46.03-.13,55.91" fill="none" stroke="#231f20" stroke-linecap="round" stroke-linejoin="round" stroke-width=".25"/><path d="m384.04,293.77c-.04,11.79-.04,41.58-.02,53.36" fill="none" stroke="#231f20" stroke-linecap="round" stroke-linejoin="round" stroke-width=".25"/><path d="m393.3,292.34c.12,14.29.11,38.08-.01,52.37" fill="none" stroke="#231f20" stroke-linecap="round" stroke-linejoin="round" stroke-width=".25"/><path d="m402.6,292.54c.24,13.81.21,37.13-.11,50.94" fill="none" stroke="#231f20" stroke-linecap="round" stroke-linejoin="round" stroke-width=".25"/><path d="m411.45,291.61c-.29,13.17-.27,35.86.08,49.03" fill="none" stroke="#231f20" stroke-linecap="round" stroke-linejoin="round" stroke-width=".25"/><path d="m180.29,272.6c-.04,4.9-.07,19.31-.09,24.21" fill="none" stroke="#231f20" stroke-linecap="round" stroke-linejoin="round" stroke-width=".25"/><path d="m187.45,274.03c-.08,6.2-.14,21.91-.16,28.12" fill="none" stroke="#231f20" stroke-linecap="round" stroke-linejoin="round" stroke-width=".25"/><path d="m193.85,275.74c.17,7.08.28,23.68.3,30.76" fill="none" stroke="#231f20" stroke-linecap="round" stroke-linejoin="round" stroke-width=".25"/><path d="m200.18,277.14c0,8.12,0,25.75,0,33.87" fill="none" stroke="#231f20" stroke-linecap="round" stroke-linejoin="round" stroke-width=".25"/><path d="m207.19,278.82c0,8.79,0,27.09,0,35.88" fill="none" stroke="#231f20" stroke-linecap="round" stroke-linejoin="round" stroke-width=".25"/><path d="m214.24,280.48c.08,9.63.08,28.76.02,38.39" fill="none" stroke="#231f20" stroke-linecap="round" stroke-linejoin="round" stroke-width=".25"/><path d="m221.28,282.01c.1,10.28.11,30.07,0,40.36" fill="none" stroke="#231f20" stroke-linecap="round" stroke-linejoin="round" stroke-width=".25"/><path d="m228.3,284.09c.12,10.72.15,30.95.09,41.68" fill="none" stroke="#231f20" stroke-linecap="round" stroke-linejoin="round" stroke-width=".25"/><path d="m235.34,285.18c.15,11.41.18,32.32.08,43.73" fill="none" stroke="#231f20" stroke-linecap="round" stroke-linejoin="round" stroke-width=".25"/><path d="m242.38,286.64c.2,11.99.22,33.49.06,45.48" fill="none" stroke="#231f20" stroke-linecap="round" stroke-linejoin="round" stroke-width=".25"/><path d="m249.43,289.01c.22,12.01.22,33.53,0,45.54" fill="none" stroke="#231f20" stroke-linecap="round" stroke-linejoin="round" stroke-width=".25"/><path d="m255.96,289.95c-.25,12.8-.22,35.1.06,47.9" fill="none" stroke="#231f20" stroke-linecap="round" stroke-linejoin="round" stroke-width=".25"/><path d="m328.81,297.36c-.01,6.27-.02,62.71-.02,68.98" fill="none" stroke="#231f20" stroke-linecap="round" stroke-linejoin="round" stroke-width=".25"/><path d="m319.53,297.36c-.09,7.89-.13,56.19-.12,64.08" fill="none" stroke="#231f20" stroke-linecap="round" stroke-linejoin="round" stroke-width=".25"/><path d="m310.27,296.53c-.17,8.14-.25,50.74-.23,58.88" fill="none" stroke="#231f20" stroke-linecap="round" stroke-linejoin="round" stroke-width=".25"/><path d="m301.41,294.99c.12,9.88.17,46.03.13,55.91" fill="none" stroke="#231f20" stroke-linecap="round" stroke-linejoin="round" stroke-width=".25"/><path d="m292.15,293.77c.04,11.79.04,41.58.02,53.36" fill="none" stroke="#231f20" stroke-linecap="round" stroke-linejoin="round" stroke-width=".25"/><path d="m282.89,292.34c-.12,14.29-.11,38.08.01,52.37" fill="none" stroke="#231f20" stroke-linecap="round" stroke-linejoin="round" stroke-width=".25"/><path d="m273.59,292.54c-.24,13.81-.21,37.13.11,50.94" fill="none" stroke="#231f20" stroke-linecap="round" stroke-linejoin="round" stroke-width=".25"/><path d="m264.75,291.61c.29,13.17.27,35.86-.08,49.03" fill="none" stroke="#231f20" stroke-linecap="round" stroke-linejoin="round" stroke-width=".25"/><path d="m187.79,176.75c26.59-11.23,57.44-18.06,82.34-21.38,49.44-6.59,96.64-6.38,146.21.05,25.7,3.67,49.65,8.2,72.06,21.19" fill="none" stroke="#231f20" stroke-linecap="round" stroke-linejoin="round" stroke-width=".25"/><path d="m197.63,178.78c35.62-11.62,72.7-18.83,110.09-21.16,37.7-2.35,75.08,0,112.38,5.65,19.13,2.9,38.27,6.9,56.14,14.51" fill="none" stroke="#231f20" stroke-linecap="round" stroke-linejoin="round" stroke-width=".25"/><path d="m207.76,181.17c82.82-24.84,172.78-23.92,255.54-1.39" fill="none" stroke="#231f20" stroke-linecap="round" stroke-linejoin="round" stroke-width=".25"/><path d="m216.99,184.6c29.65-9.37,52.16-11.65,82.91-14.17,12.61-1.03,37.52-1.83,52.7-1.47,15.28.37,32.52,2.4,47.72,4.09,17.06,1.89,34.03,4.82,50.62,9.26" fill="none" stroke="#231f20" stroke-linecap="round" stroke-linejoin="round" stroke-width=".25"/><path d="m226.85,188.42c26.8-6.5,54.22-10.32,81.76-11.71,27.21-1.37,54.52-.37,81.58,2.67,15.35,1.72,30.62,4.09,45.77,7.06" fill="none" stroke="#231f20" stroke-linecap="round" stroke-linejoin="round" stroke-width=".25"/><path d="m279.14,188.42c11.91-1.55,23.89-2.62,35.89-3.22,27.21-1.37,54.52-.37,81.58,2.67" fill="none" stroke="#231f20" stroke-linecap="round" stroke-linejoin="round" stroke-width=".25"/><path d="m308.97,193.95c2.02-.13,4.04-.24,6.06-.34,18.25-.92,36.54-.77,54.78.34" fill="none" stroke="#231f20" stroke-linecap="round" stroke-linejoin="round" stroke-width=".25"/></g></svg>