<?xml version="1.0" encoding="UTF-8"?><svg xmlns="http://www.w3.org/2000/svg" viewBox="0 0 600 600"><g id="Layer_4"><path d="m208.39,481.1h10.73v2.29h-8v4.47h7.1v2.31h-7.1v5.63h-2.73v-14.7Z" fill="#231f20"/><path d="m221.14,481.16c0-.88.71-1.58,1.7-1.58s1.68.65,1.68,1.51c0,.92-.69,1.64-1.68,1.64s-1.7-.69-1.7-1.57Zm.38,3.42h2.62v11.21h-2.62v-11.21Z" fill="#231f20"/><path d="m227.2,498.42l1.18-1.97c.99.82,2.58,1.34,4.14,1.34,2.48,0,3.57-1.13,3.57-3.4v-.59c-.92,1.01-2.25,1.49-3.76,1.49-3.21,0-5.67-2.18-5.67-5.44s2.46-5.4,5.67-5.4c1.57,0,2.96.5,3.88,1.62v-1.49h2.5v9.51c0,4.07-2.12,5.92-6.05,5.92-2.1,0-4.18-.55-5.46-1.6Zm8.92-8.57c0-1.89-1.43-3.17-3.4-3.17s-3.42,1.28-3.42,3.17,1.43,3.21,3.42,3.21,3.4-1.3,3.4-3.21Z" fill="#231f20"/><path d="m241.27,494.2c0-1.05.78-1.74,1.72-1.74s1.72.69,1.72,1.74-.78,1.74-1.72,1.74-1.72-.74-1.72-1.74Z" fill="#231f20"/><path d="m251.37,494.31l1.18-2.12c1.05.88,2.65,1.45,4.3,1.45,1.95,0,3.11-.86,3.11-2.23s-.97-2.18-3.19-2.18h-1.34v-1.87l3.32-3.97h-6.66v-2.29h10.02v1.83l-3.57,4.24c2.77.36,4.18,2.02,4.18,4.22,0,2.48-1.87,4.62-5.82,4.62-2.08,0-4.16-.63-5.52-1.7Z" fill="#231f20"/><path d="m270.53,488.87h5.77v2.18h-5.77v-2.18Z" fill="#231f20"/><path d="m285.23,481.1h6.89c3.53,0,5.42,1.49,5.42,3.82,0,1.51-.78,2.65-1.89,3.23,1.57.5,2.65,1.74,2.65,3.65,0,2.52-1.97,3.99-5.75,3.99h-7.31v-14.7Zm6.59,6.19c1.89,0,2.96-.67,2.96-2.02s-1.07-2.04-2.96-2.04h-3.86v4.05h3.86Zm.55,6.36c2.06,0,3.17-.65,3.17-2.12s-1.11-2.12-3.17-2.12h-4.41v4.24h4.41Z" fill="#231f20"/><path d="m307.86,494.45c-.65.95-1.85,1.49-3.53,1.49-2.56,0-4.18-1.41-4.18-3.36s1.26-3.34,4.66-3.34h2.9v-.17c0-1.53-.92-2.44-2.79-2.44-1.26,0-2.56.42-3.4,1.11l-1.03-1.91c1.2-.92,2.94-1.39,4.75-1.39,3.23,0,5.1,1.53,5.1,4.77v6.57h-2.48v-1.34Zm-.15-3.46h-2.71c-1.78,0-2.27.67-2.27,1.49,0,.95.8,1.55,2.14,1.55s2.39-.59,2.83-1.74v-1.3Z" fill="#231f20"/><path d="m312.8,490.19c0-3.36,2.52-5.73,6.07-5.73,2.18,0,3.93.9,4.79,2.6l-2.02,1.18c-.67-1.07-1.68-1.55-2.79-1.55-1.93,0-3.4,1.34-3.4,3.51s1.47,3.51,3.4,3.51c1.11,0,2.12-.48,2.79-1.55l2.02,1.18c-.86,1.68-2.6,2.62-4.79,2.62-3.55,0-6.07-2.39-6.07-5.75Z" fill="#231f20"/><path d="m325.82,480.22h2.62v9.41l5.44-5.04h3.15l-4.68,4.7,5.12,6.51h-3.19l-3.88-4.81-1.95,1.85v2.96h-2.62v-15.58Z" fill="#231f20"/><path d="m343.12,484.59h2.73l3.49,8.31,3.59-8.31h2.52l-4.81,11.21h-2.71l-4.81-11.21Z" fill="#231f20"/><path d="m356.71,481.16c0-.88.71-1.58,1.7-1.58s1.68.65,1.68,1.51c0,.92-.69,1.64-1.68,1.64s-1.7-.69-1.7-1.57Zm.38,3.42h2.62v11.21h-2.62v-11.21Z" fill="#231f20"/><path d="m362.23,490.19c0-3.34,2.46-5.73,5.79-5.73s5.67,2.29,5.67,5.79c0,.21-.02.53-.04.78h-8.8c.32,1.64,1.68,2.69,3.63,2.69,1.26,0,2.25-.4,3.04-1.22l1.41,1.62c-1.01,1.2-2.58,1.83-4.51,1.83-3.76,0-6.19-2.42-6.19-5.75Zm8.96-.9c-.21-1.62-1.45-2.73-3.17-2.73s-2.94,1.09-3.19,2.73h6.36Z" fill="#231f20"/><path d="m374.37,484.59h2.48l2.96,8.27,3.09-8.27h2.21l3.02,8.29,3.04-8.29h2.33l-4.14,11.21h-2.52l-2.9-7.75-2.94,7.75h-2.52l-4.12-11.21Z" fill="#231f20"/></g><g id="art_lines"><path d="m299.99,195.71c92.17-.36,162.67-5.72,175.62-13.44" fill="none" stroke="#231f20" stroke-linecap="round" stroke-linejoin="round"/><path d="m477.64,186.11c-7.14,4.25-27.41,7.5-60.93,10.03-31.52,2.38-71.87,3.73-116.7,3.91" fill="none" stroke="#231f20" stroke-linecap="round" stroke-linejoin="round"/><path d="m476.51,208.36c-12.53,8.56-86.19,15.14-176.51,15.49" fill="none" stroke="#231f20" stroke-linecap="round" stroke-linejoin="round"/><path d="m470.37,237.19c-21.97,8.17-89.19,18.87-170.37,19.19" fill="none" stroke="#231f20" stroke-linecap="round" stroke-linejoin="round"/><path d="m476.34,254.55c0,9.77-77.2,24.6-176.34,25.33" fill="none" stroke="#231f20" stroke-linecap="round" stroke-linejoin="round"/><path d="m473.75,328.56c1.73,2.4,2.63,4.87,2.63,7.38,0,23.47-78.25,42.61-176.37,43.6" fill="none" stroke="#231f20" stroke-linecap="round" stroke-linejoin="round"/><path d="m475.12,341.06c3.57,28.83-72.84,49.9-175.12,50.3" fill="none" stroke="#231f20" stroke-linecap="round" stroke-linejoin="round"/><path d="m300,144.92c84.9.89,155.43,16.58,175.85,37.59,2.62,2.98,2.84,9.71,2.84,14.23,0,8.35-.63,9.77-7.78,20.99-1.88,3.56-4.07,11.08-1.58,17.13,2.48,6.05,7.25,12.55,7.05,18.77l-2.82,80.36c-.85,23.4-76.69,42.16-173.56,43.15" fill="none" stroke="#231f20" stroke-linecap="round" stroke-linejoin="round"/><path d="m300.01,195.71c-92.17-.36-162.67-5.72-175.62-13.44" fill="none" stroke="#231f20" stroke-linecap="round" stroke-linejoin="round"/><path d="m122.36,186.11c7.14,4.25,27.41,7.5,60.93,10.03,31.52,2.38,71.87,3.73,116.7,3.91" fill="none" stroke="#231f20" stroke-linecap="round" stroke-linejoin="round"/><path d="m123.49,208.36c12.53,8.56,86.19,15.14,176.51,15.49" fill="none" stroke="#231f20" stroke-linecap="round" stroke-linejoin="round"/><path d="m129.63,237.19c21.97,8.17,89.19,18.87,170.37,19.19" fill="none" stroke="#231f20" stroke-linecap="round" stroke-linejoin="round"/><path d="m123.66,254.55c0,9.77,77.2,24.6,176.34,25.33" fill="none" stroke="#231f20" stroke-linecap="round" stroke-linejoin="round"/><path d="m126.25,328.56c-1.73,2.4-2.63,4.87-2.63,7.38,0,23.47,78.25,42.61,176.37,43.6" fill="none" stroke="#231f20" stroke-linecap="round" stroke-linejoin="round"/><path d="m124.88,341.06c-3.57,28.83,72.84,49.9,175.12,50.3" fill="none" stroke="#231f20" stroke-linecap="round" stroke-linejoin="round"/><path d="m300,144.92c-84.9.89-155.43,16.58-175.85,37.59-2.62,2.98-2.84,9.71-2.84,14.23,0,8.35.63,9.77,7.78,20.99,1.88,3.56,4.07,11.08,1.58,17.13-2.48,6.05-7.25,12.55-7.05,18.77l2.82,80.36c.85,23.4,76.69,42.16,173.56,43.15" fill="none" stroke="#231f20" stroke-linecap="round" stroke-linejoin="round"/><path d="m142.19,269.46c-.04,4.9-.07,19.31-.09,24.21" fill="none" stroke="#231f20" stroke-linecap="round" stroke-linejoin="round" stroke-width=".25"/><path d="m149.36,270.89c-.08,6.2-.14,21.91-.16,28.12" fill="none" stroke="#231f20" stroke-linecap="round" stroke-linejoin="round" stroke-width=".25"/><path d="m155.75,272.6c.17,7.08.28,23.68.3,30.76" fill="none" stroke="#231f20" stroke-linecap="round" stroke-linejoin="round" stroke-width=".25"/><path d="m162.09,273.99c0,8.12,0,25.75,0,33.87" fill="none" stroke="#231f20" stroke-linecap="round" stroke-linejoin="round" stroke-width=".25"/><path d="m169.09,275.68c0,8.79,0,27.09,0,35.88" fill="none" stroke="#231f20" stroke-linecap="round" stroke-linejoin="round" stroke-width=".25"/><path d="m176.15,277.33c.08,9.63.08,28.76.02,38.39" fill="none" stroke="#231f20" stroke-linecap="round" stroke-linejoin="round" stroke-width=".25"/><path d="m183.19,278.86c.1,10.28.11,30.07,0,40.36" fill="none" stroke="#231f20" stroke-linecap="round" stroke-linejoin="round" stroke-width=".25"/><path d="m190.2,280.94c.12,10.72.15,30.95.09,41.68" fill="none" stroke="#231f20" stroke-linecap="round" stroke-linejoin="round" stroke-width=".25"/><path d="m197.24,282.03c.15,11.41.18,32.32.08,43.73" fill="none" stroke="#231f20" stroke-linecap="round" stroke-linejoin="round" stroke-width=".25"/><path d="m204.29,283.49c.2,11.99.22,33.49.06,45.48" fill="none" stroke="#231f20" stroke-linecap="round" stroke-linejoin="round" stroke-width=".25"/><path d="m211.34,285.87c.22,12.01.22,33.53,0,45.54" fill="none" stroke="#231f20" stroke-linecap="round" stroke-linejoin="round" stroke-width=".25"/><path d="m217.86,286.81c-.25,12.8-.22,35.1.06,47.9" fill="none" stroke="#231f20" stroke-linecap="round" stroke-linejoin="round" stroke-width=".25"/><path d="m300,295.12c.03,5.32.05,65.39.06,70.7" fill="none" stroke="#231f20" stroke-linecap="round" stroke-linejoin="round" stroke-width=".25"/><path d="m290.71,294.21c-.01,6.27-.02,62.71-.02,68.98" fill="none" stroke="#231f20" stroke-linecap="round" stroke-linejoin="round" stroke-width=".25"/><path d="m281.44,294.21c-.09,7.89-.13,56.19-.12,64.08" fill="none" stroke="#231f20" stroke-linecap="round" stroke-linejoin="round" stroke-width=".25"/><path d="m272.18,293.39c-.17,8.14-.25,50.74-.23,58.88" fill="none" stroke="#231f20" stroke-linecap="round" stroke-linejoin="round" stroke-width=".25"/><path d="m263.32,291.84c.12,9.88.17,46.03.13,55.91" fill="none" stroke="#231f20" stroke-linecap="round" stroke-linejoin="round" stroke-width=".25"/><path d="m254.06,290.62c.04,11.79.04,41.58.02,53.36" fill="none" stroke="#231f20" stroke-linecap="round" stroke-linejoin="round" stroke-width=".25"/><path d="m244.8,289.19c-.12,14.29-.11,38.08.01,52.37" fill="none" stroke="#231f20" stroke-linecap="round" stroke-linejoin="round" stroke-width=".25"/><path d="m235.49,289.39c-.24,13.81-.21,37.13.11,50.94" fill="none" stroke="#231f20" stroke-linecap="round" stroke-linejoin="round" stroke-width=".25"/><path d="m226.65,288.46c.29,13.17.27,35.86-.08,49.03" fill="none" stroke="#231f20" stroke-linecap="round" stroke-linejoin="round" stroke-width=".25"/><path d="m457.81,269.46c.04,4.9.07,19.31.09,24.21" fill="none" stroke="#231f20" stroke-linecap="round" stroke-linejoin="round" stroke-width=".25"/><path d="m450.64,270.89c.08,6.2.14,21.91.16,28.12" fill="none" stroke="#231f20" stroke-linecap="round" stroke-linejoin="round" stroke-width=".25"/><path d="m444.25,272.6c-.17,7.08-.28,23.68-.3,30.76" fill="none" stroke="#231f20" stroke-linecap="round" stroke-linejoin="round" stroke-width=".25"/><path d="m437.91,273.99c0,8.12,0,25.75,0,33.87" fill="none" stroke="#231f20" stroke-linecap="round" stroke-linejoin="round" stroke-width=".25"/><path d="m430.91,275.68c0,8.79,0,27.09,0,35.88" fill="none" stroke="#231f20" stroke-linecap="round" stroke-linejoin="round" stroke-width=".25"/><path d="m423.85,277.33c-.08,9.63-.08,28.76-.02,38.39" fill="none" stroke="#231f20" stroke-linecap="round" stroke-linejoin="round" stroke-width=".25"/><path d="m416.81,278.86c-.1,10.28-.11,30.07,0,40.36" fill="none" stroke="#231f20" stroke-linecap="round" stroke-linejoin="round" stroke-width=".25"/><path d="m409.8,280.94c-.12,10.72-.15,30.95-.09,41.68" fill="none" stroke="#231f20" stroke-linecap="round" stroke-linejoin="round" stroke-width=".25"/><path d="m402.76,282.03c-.15,11.41-.18,32.32-.08,43.73" fill="none" stroke="#231f20" stroke-linecap="round" stroke-linejoin="round" stroke-width=".25"/><path d="m395.71,283.49c-.2,11.99-.22,33.49-.06,45.48" fill="none" stroke="#231f20" stroke-linecap="round" stroke-linejoin="round" stroke-width=".25"/><path d="m388.66,285.87c-.22,12.01-.22,33.53,0,45.54" fill="none" stroke="#231f20" stroke-linecap="round" stroke-linejoin="round" stroke-width=".25"/><path d="m382.14,286.81c.25,12.8.22,35.1-.06,47.9" fill="none" stroke="#231f20" stroke-linecap="round" stroke-linejoin="round" stroke-width=".25"/><path d="m309.29,294.21c.01,6.27.02,62.71.02,68.98" fill="none" stroke="#231f20" stroke-linecap="round" stroke-linejoin="round" stroke-width=".25"/><path d="m318.56,294.21c.09,7.89.13,56.19.12,64.08" fill="none" stroke="#231f20" stroke-linecap="round" stroke-linejoin="round" stroke-width=".25"/><path d="m327.82,293.39c.17,8.14.25,50.74.23,58.88" fill="none" stroke="#231f20" stroke-linecap="round" stroke-linejoin="round" stroke-width=".25"/><path d="m336.68,291.84c-.12,9.88-.17,46.03-.13,55.91" fill="none" stroke="#231f20" stroke-linecap="round" stroke-linejoin="round" stroke-width=".25"/><path d="m345.94,290.62c-.04,11.79-.04,41.58-.02,53.36" fill="none" stroke="#231f20" stroke-linecap="round" stroke-linejoin="round" stroke-width=".25"/><path d="m355.2,289.19c.12,14.29.11,38.08-.01,52.37" fill="none" stroke="#231f20" stroke-linecap="round" stroke-linejoin="round" stroke-width=".25"/><path d="m364.51,289.39c.24,13.81.21,37.13-.11,50.94" fill="none" stroke="#231f20" stroke-linecap="round" stroke-linejoin="round" stroke-width=".25"/><path d="m373.35,288.46c-.29,13.17-.27,35.86.08,49.03" fill="none" stroke="#231f20" stroke-linecap="round" stroke-linejoin="round" stroke-width=".25"/><path d="m146.96,175.87c26.59-11.23,57.44-18.06,82.34-21.38,49.44-6.59,96.64-6.38,146.21.05,25.7,3.67,49.65,8.2,72.06,21.19" fill="none" stroke="#231f20" stroke-linecap="round" stroke-linejoin="round" stroke-width=".25"/><path d="m156.8,177.9c35.62-11.62,72.7-18.83,110.09-21.16,37.7-2.35,75.08,0,112.38,5.65,19.13,2.9,38.27,6.9,56.14,14.51" fill="none" stroke="#231f20" stroke-linecap="round" stroke-linejoin="round" stroke-width=".25"/><path d="m166.93,180.29c82.82-24.84,172.78-23.92,255.54-1.39" fill="none" stroke="#231f20" stroke-linecap="round" stroke-linejoin="round" stroke-width=".25"/><path d="m176.15,183.73c29.65-9.37,52.16-11.65,82.91-14.17,12.61-1.03,37.52-1.83,52.7-1.47,15.28.37,32.52,2.4,47.72,4.09,17.06,1.89,34.03,4.82,50.62,9.26" fill="none" stroke="#231f20" stroke-linecap="round" stroke-linejoin="round" stroke-width=".25"/><path d="m186.02,187.54c26.8-6.5,54.22-10.32,81.76-11.71,27.21-1.37,54.52-.37,81.58,2.67,15.35,1.72,30.62,4.09,45.77,7.06" fill="none" stroke="#231f20" stroke-linecap="round" stroke-linejoin="round" stroke-width=".25"/><path d="m238.31,187.54c11.91-1.55,23.89-2.62,35.89-3.22,27.21-1.37,54.52-.37,81.58,2.67" fill="none" stroke="#231f20" stroke-linecap="round" stroke-linejoin="round" stroke-width=".25"/><path d="m268.14,193.08c2.02-.13,4.04-.24,6.06-.34,18.25-.92,36.54-.77,54.78.34" fill="none" stroke="#231f20" stroke-linecap="round" stroke-linejoin="round" stroke-width=".25"/></g></svg>