<?xml version="1.0" encoding="UTF-8"?><svg xmlns="http://www.w3.org/2000/svg" viewBox="0 0 600 600"><g id="Layer_2"><path d="m310.63,407.45c5.94,3.09,10,9.3,10,16.45,0,10.23-8.3,18.53-18.53,18.53s-18.53-8.3-18.53-18.53c0-6.64,3.5-12.47,8.75-15.74" fill="none" stroke="#231f20" stroke-linecap="round" stroke-linejoin="round"/><path d="m319.59,396.55c9,5.77,14.97,15.86,14.97,27.35,0,17.93-14.53,32.46-32.46,32.46s-32.46-14.53-32.46-32.46c0-11.21,5.7-21.12,14.34-26.96" fill="none" stroke="#231f20" stroke-linecap="round" stroke-linejoin="round"/><circle cx="300" cy="238.83" r="158.91" fill="none" stroke="#231f20" stroke-linecap="round" stroke-linejoin="round"/><circle cx="300" cy="238.83" r="147.98" fill="none" stroke="#231f20" stroke-linecap="round" stroke-linejoin="round" stroke-width=".5"/><path d="m300,384.45c-19.66,0-38.73-3.85-56.68-11.44-17.34-7.33-32.91-17.83-46.29-31.21-13.37-13.37-23.87-28.95-31.21-46.29-7.59-17.95-11.44-37.02-11.44-56.68s3.85-38.73,11.44-56.68c7.33-17.34,17.83-32.91,31.21-46.29,13.37-13.37,28.95-23.87,46.29-31.21,17.95-7.59,37.02-11.44,56.68-11.44s38.73,3.85,56.68,11.44c17.34,7.33,32.91,17.83,46.29,31.21,13.37,13.37,23.87,28.95,31.21,46.29,7.59,17.95,11.44,37.02,11.44,56.68s-3.85,38.73-11.44,56.68c-7.33,17.34-17.83,32.91-31.21,46.29-13.37,13.37-28.95,23.87-46.29,31.21-17.95,7.59-37.02,11.44-56.68,11.44Z" fill="none" stroke="#231f20" stroke-linecap="round" stroke-linejoin="round" stroke-width=".5"/><circle cx="301.28" cy="236.99" r="33.85" fill="none" stroke="#231f20" stroke-linecap="round" stroke-linejoin="round" stroke-width=".5"/><circle cx="301.28" cy="236.99" r="38.32" fill="none" stroke="#231f20" stroke-linecap="round" stroke-linejoin="round" stroke-width=".5"/><circle cx="301.28" cy="236.99" r="35.95" transform="translate(1.41 475.76) rotate(-76.72)" fill="none" stroke="#231f20" stroke-linecap="round" stroke-linejoin="round" stroke-width=".5"/><circle cx="301.28" cy="236.99" r="46.17" fill="none" stroke="#231f20" stroke-linecap="round" stroke-linejoin="round" stroke-width=".5"/><circle cx="301.28" cy="236.99" r="43.8" transform="translate(1.41 475.76) rotate(-76.72)" fill="none" stroke="#231f20" stroke-linecap="round" stroke-linejoin="round" stroke-width=".5"/><circle cx="301.28" cy="236.99" r="54.24" fill="none" stroke="#231f20" stroke-linecap="round" stroke-linejoin="round" stroke-width=".5"/><circle cx="301.28" cy="236.99" r="51.88" transform="translate(19.09 496.42) rotate(-80.78)" fill="none" stroke="#231f20" stroke-linecap="round" stroke-linejoin="round" stroke-width=".5"/><circle cx="301.28" cy="236.99" r="61.67" fill="none" stroke="#231f20" stroke-linecap="round" stroke-linejoin="round" stroke-width=".5"/><path d="m301.28,296.3c-32.7,0-59.31-26.61-59.31-59.31,0-15.84,6.17-30.74,17.37-41.94,11.2-11.2,26.1-17.37,41.94-17.37,32.7,0,59.31,26.61,59.31,59.31s-26.61,59.31-59.31,59.31Z" fill="none" stroke="#231f20" stroke-linecap="round" stroke-linejoin="round" stroke-width=".5"/><circle cx="301.28" cy="236.99" r="69.67" fill="none" stroke="#231f20" stroke-linecap="round" stroke-linejoin="round" stroke-width=".5"/><path d="m301.28,304.3c-17.98,0-34.88-7-47.59-19.71-12.71-12.71-19.71-29.61-19.71-47.59s7-34.88,19.71-47.59c12.71-12.71,29.61-19.71,47.59-19.71s34.88,7,47.59,19.71c12.71,12.71,19.71,29.61,19.71,47.59s-7,34.88-19.71,47.59c-12.71,12.71-29.61,19.71-47.59,19.71Z" fill="none" stroke="#231f20" stroke-linecap="round" stroke-linejoin="round" stroke-width=".5"/><circle cx="301.28" cy="236.99" r="77.31" fill="none" stroke="#231f20" stroke-linecap="round" stroke-linejoin="round" stroke-width=".5"/><path d="m301.28,311.94c-20.02,0-38.84-7.8-52.99-21.95-14.15-14.15-21.95-32.97-21.95-52.99s7.8-38.84,21.95-52.99c14.15-14.15,32.97-21.95,52.99-21.95s38.84,7.8,52.99,21.95c14.15,14.15,21.95,32.97,21.95,52.99s-7.8,38.84-21.95,52.99c-14.15,14.15-32.97,21.95-52.99,21.95Z" fill="none" stroke="#231f20" stroke-linecap="round" stroke-linejoin="round" stroke-width=".5"/><circle cx="301.28" cy="236.99" r="85.12" fill="none" stroke="#231f20" stroke-linecap="round" stroke-linejoin="round" stroke-width=".5"/><path d="m301.28,319.75c-22.11,0-42.89-8.61-58.52-24.24-15.63-15.63-24.24-36.41-24.24-58.52s8.61-42.89,24.24-58.52c15.63-15.63,36.41-24.24,58.52-24.24s42.89,8.61,58.52,24.24c15.63,15.63,24.24,36.41,24.24,58.52s-8.61,42.89-24.24,58.52c-15.63,15.63-36.41,24.24-58.52,24.24Z" fill="none" stroke="#231f20" stroke-linecap="round" stroke-linejoin="round" stroke-width=".5"/><circle cx="301.28" cy="236.99" r="92.75" fill="none" stroke="#231f20" stroke-linecap="round" stroke-linejoin="round" stroke-width=".5"/><path d="m301.28,327.37c-24.14,0-46.84-9.4-63.91-26.47-17.07-17.07-26.47-39.77-26.47-63.91s9.4-46.84,26.47-63.91c17.07-17.07,39.77-26.47,63.91-26.47s46.84,9.4,63.91,26.47c17.07,17.07,26.47,39.77,26.47,63.91s-9.4,46.84-26.47,63.91c-17.07,17.07-39.77,26.47-63.91,26.47Z" fill="none" stroke="#231f20" stroke-linecap="round" stroke-linejoin="round" stroke-width=".5"/><circle cx="301.28" cy="236.99" r="100.86" fill="none" stroke="#231f20" stroke-linecap="round" stroke-linejoin="round" stroke-width=".5"/><path d="m301.28,335.49c-26.31,0-51.04-10.25-69.65-28.85-18.6-18.6-28.85-43.34-28.85-69.65s10.25-51.04,28.85-69.65c18.6-18.6,43.34-28.85,69.65-28.85s51.04,10.25,69.65,28.85c18.6,18.6,28.85,43.34,28.85,69.65s-10.25,51.04-28.85,69.65c-18.6,18.6-43.34,28.85-69.65,28.85Z" fill="none" stroke="#231f20" stroke-linecap="round" stroke-linejoin="round" stroke-width=".5"/><circle cx="301.28" cy="236.99" r="108.88" fill="none" stroke="#231f20" stroke-linecap="round" stroke-linejoin="round" stroke-width=".5"/><path d="m301.28,343.5c-14.38,0-28.33-2.82-41.46-8.37-12.68-5.36-24.07-13.04-33.86-22.83-9.78-9.78-17.46-21.17-22.83-33.86-5.55-13.13-8.37-27.08-8.37-41.46s2.82-28.33,8.37-41.46c5.36-12.68,13.04-24.07,22.83-33.86,9.78-9.78,21.17-17.46,33.86-22.83,13.13-5.55,27.08-8.37,41.46-8.37s28.33,2.82,41.46,8.37c12.68,5.36,24.07,13.04,33.86,22.83,9.78,9.78,17.46,21.17,22.83,33.86,5.55,13.13,8.37,27.08,8.37,41.46s-2.82,28.33-8.37,41.46c-5.36,12.68-13.04,24.07-22.83,33.86-9.78,9.78-21.17,17.46-33.86,22.83-13.13,5.55-27.08,8.37-41.46,8.37Z" fill="none" stroke="#231f20" stroke-linecap="round" stroke-linejoin="round" stroke-width=".5"/><circle cx="301.28" cy="236.99" r="116.66" fill="none" stroke="#231f20" stroke-linecap="round" stroke-linejoin="round" stroke-width=".5"/><path d="m301.28,351.28c-15.43,0-30.4-3.02-44.49-8.98-13.61-5.76-25.83-14-36.33-24.49-10.5-10.5-18.74-22.72-24.49-36.33-5.96-14.09-8.98-29.06-8.98-44.49s3.02-30.4,8.98-44.49c5.76-13.61,14-25.83,24.49-36.33,10.5-10.5,22.72-18.74,36.33-24.49,14.09-5.96,29.06-8.98,44.49-8.98s30.4,3.02,44.49,8.98c13.61,5.76,25.83,14,36.33,24.49,10.5,10.5,18.74,22.72,24.49,36.33,5.96,14.09,8.98,29.06,8.98,44.49s-3.02,30.4-8.98,44.49c-5.76,13.61-14,25.83-24.49,36.33-10.5,10.5-22.72,18.74-36.33,24.49-14.09,5.96-29.06,8.98-44.49,8.98Z" fill="none" stroke="#231f20" stroke-linecap="round" stroke-linejoin="round" stroke-width=".5"/><circle cx="301.28" cy="236.99" r="124.49" fill="none" stroke="#231f20" stroke-linecap="round" stroke-linejoin="round" stroke-width=".5"/><path d="m301.28,359.12c-16.49,0-32.48-3.23-47.54-9.6-14.54-6.15-27.6-14.96-38.82-26.17-11.22-11.22-20.02-24.28-26.17-38.82-6.37-15.05-9.6-31.05-9.6-47.54s3.23-32.48,9.6-47.54c6.15-14.54,14.96-27.6,26.17-38.82,11.22-11.22,24.28-20.02,38.82-26.17,15.05-6.37,31.05-9.6,47.54-9.6s32.48,3.23,47.54,9.6c14.54,6.15,27.6,14.96,38.82,26.17,11.22,11.22,20.02,24.28,26.17,38.82,6.37,15.05,9.6,31.05,9.6,47.54s-3.23,32.48-9.6,47.54c-6.15,14.54-14.96,27.6-26.17,38.82-11.22,11.22-24.28,20.02-38.82,26.17-15.05,6.37-31.05,9.6-47.54,9.6Z" fill="none" stroke="#231f20" stroke-linecap="round" stroke-linejoin="round" stroke-width=".5"/><circle cx="301.28" cy="236.99" r="132.61" fill="none" stroke="#231f20" stroke-linecap="round" stroke-linejoin="round" stroke-width=".5"/><path d="m301.28,367.23c-17.58,0-34.64-3.44-50.7-10.23-15.51-6.56-29.44-15.95-41.4-27.91-11.96-11.96-21.35-25.89-27.91-41.4-6.79-16.06-10.23-33.11-10.23-50.7s3.44-34.64,10.23-50.7c6.56-15.51,15.95-29.44,27.91-41.4,11.96-11.96,25.89-21.35,41.4-27.91,16.06-6.79,33.11-10.23,50.7-10.23s34.64,3.44,50.69,10.23c15.51,6.56,29.44,15.95,41.4,27.91,11.96,11.96,21.35,25.89,27.91,41.4,6.79,16.06,10.23,33.11,10.23,50.7s-3.44,34.64-10.23,50.7c-6.56,15.51-15.95,29.44-27.91,41.4-11.96,11.96-25.89,21.35-41.4,27.91-16.06,6.79-33.11,10.23-50.69,10.23Z" fill="none" stroke="#231f20" stroke-linecap="round" stroke-linejoin="round" stroke-width=".5"/><circle cx="301.28" cy="236.99" r="139.79" fill="none" stroke="#231f20" stroke-linecap="round" stroke-linejoin="round" stroke-width=".5"/><path d="m301.28,374.41c-18.55,0-36.55-3.63-53.49-10.8-16.36-6.92-31.06-16.83-43.68-29.45-12.62-12.62-22.53-27.32-29.45-43.68-7.17-16.94-10.8-34.94-10.8-53.49s3.63-36.55,10.8-53.49c6.92-16.36,16.83-31.06,29.45-43.68,12.62-12.62,27.32-22.53,43.68-29.45,16.94-7.17,34.94-10.8,53.49-10.8s36.55,3.63,53.49,10.8c16.36,6.92,31.06,16.83,43.68,29.45,12.62,12.62,22.53,27.32,29.45,43.68,7.17,16.94,10.8,34.94,10.8,53.49s-3.63,36.55-10.8,53.49c-6.92,16.36-16.83,31.06-29.45,43.68-12.62,12.62-27.32,22.53-43.68,29.45-16.94,7.17-34.94,10.8-53.49,10.8Z" fill="none" stroke="#231f20" stroke-linecap="round" stroke-linejoin="round" stroke-width=".5"/><ellipse cx="342.59" cy="237.04" rx="2.38" ry="3.22" fill="none" stroke="#231f20" stroke-linecap="round" stroke-linejoin="round" stroke-width=".5"/><ellipse cx="357.9" cy="237.04" rx="2.38" ry="3.22" fill="none" stroke="#231f20" stroke-linecap="round" stroke-linejoin="round" stroke-width=".5"/><ellipse cx="373.37" cy="237.04" rx="2.38" ry="3.22" fill="none" stroke="#231f20" stroke-linecap="round" stroke-linejoin="round" stroke-width=".5"/><ellipse cx="388.99" cy="237.04" rx="2.38" ry="3.22" fill="none" stroke="#231f20" stroke-linecap="round" stroke-linejoin="round" stroke-width=".5"/><ellipse cx="404.52" cy="237.04" rx="2.38" ry="3.22" fill="none" stroke="#231f20" stroke-linecap="round" stroke-linejoin="round" stroke-width=".5"/><ellipse cx="420.59" cy="237.04" rx="2.38" ry="3.22" fill="none" stroke="#231f20" stroke-linecap="round" stroke-linejoin="round" stroke-width=".5"/><ellipse cx="436.26" cy="237.04" rx="2.38" ry="3.22" fill="none" stroke="#231f20" stroke-linecap="round" stroke-linejoin="round" stroke-width=".5"/><ellipse cx="330.52" cy="207.82" rx="2.38" ry="3.22" transform="translate(-50.14 294.58) rotate(-45)" fill="none" stroke="#231f20" stroke-linecap="round" stroke-linejoin="round" stroke-width=".5"/><ellipse cx="341.35" cy="196.99" rx="2.38" ry="3.22" transform="translate(-39.32 299.07) rotate(-45)" fill="none" stroke="#231f20" stroke-linecap="round" stroke-linejoin="round" stroke-width=".5"/><ellipse cx="352.29" cy="186.05" rx="2.38" ry="3.22" transform="translate(-28.38 303.6) rotate(-45)" fill="none" stroke="#231f20" stroke-linecap="round" stroke-linejoin="round" stroke-width=".5"/><ellipse cx="363.34" cy="175" rx="2.38" ry="3.22" transform="translate(-17.33 308.18) rotate(-45)" fill="none" stroke="#231f20" stroke-linecap="round" stroke-linejoin="round" stroke-width=".5"/><ellipse cx="374.31" cy="164.03" rx="2.38" ry="3.22" transform="translate(-6.35 312.72) rotate(-45)" fill="none" stroke="#231f20" stroke-linecap="round" stroke-linejoin="round" stroke-width=".5"/><ellipse cx="385.68" cy="152.67" rx="2.38" ry="3.22" transform="translate(5.01 317.43) rotate(-45)" fill="none" stroke="#231f20" stroke-linecap="round" stroke-linejoin="round" stroke-width=".5"/><ellipse cx="396.76" cy="141.58" rx="2.38" ry="3.22" transform="translate(16.1 322.02) rotate(-45)" fill="none" stroke="#231f20" stroke-linecap="round" stroke-linejoin="round" stroke-width=".5"/><ellipse cx="301.33" cy="195.69" rx="3.22" ry="2.38" fill="none" stroke="#231f20" stroke-linecap="round" stroke-linejoin="round" stroke-width=".5"/><ellipse cx="301.33" cy="180.37" rx="3.22" ry="2.38" fill="none" stroke="#231f20" stroke-linecap="round" stroke-linejoin="round" stroke-width=".5"/><ellipse cx="301.33" cy="164.9" rx="3.22" ry="2.38" fill="none" stroke="#231f20" stroke-linecap="round" stroke-linejoin="round" stroke-width=".5"/><ellipse cx="301.33" cy="149.28" rx="3.22" ry="2.38" fill="none" stroke="#231f20" stroke-linecap="round" stroke-linejoin="round" stroke-width=".5"/><ellipse cx="301.33" cy="133.76" rx="3.22" ry="2.38" fill="none" stroke="#231f20" stroke-linecap="round" stroke-linejoin="round" stroke-width=".5"/><ellipse cx="301.33" cy="117.69" rx="3.22" ry="2.38" fill="none" stroke="#231f20" stroke-linecap="round" stroke-linejoin="round" stroke-width=".5"/><ellipse cx="301.33" cy="102.01" rx="3.22" ry="2.38" fill="none" stroke="#231f20" stroke-linecap="round" stroke-linejoin="round" stroke-width=".5"/><ellipse cx="272.11" cy="207.75" rx="3.22" ry="2.38" transform="translate(-67.2 253.26) rotate(-45)" fill="none" stroke="#231f20" stroke-linecap="round" stroke-linejoin="round" stroke-width=".5"/><ellipse cx="261.28" cy="196.92" rx="3.22" ry="2.38" transform="translate(-62.72 242.43) rotate(-45)" fill="none" stroke="#231f20" stroke-linecap="round" stroke-linejoin="round" stroke-width=".5"/><ellipse cx="250.34" cy="185.98" rx="3.22" ry="2.38" transform="translate(-58.19 231.49) rotate(-45)" fill="none" stroke="#231f20" stroke-linecap="round" stroke-linejoin="round" stroke-width=".5"/><ellipse cx="239.29" cy="174.93" rx="3.22" ry="2.38" transform="translate(-53.61 220.44) rotate(-45)" fill="none" stroke="#231f20" stroke-linecap="round" stroke-linejoin="round" stroke-width=".5"/><ellipse cx="228.32" cy="163.96" rx="3.22" ry="2.38" transform="translate(-49.06 209.47) rotate(-45)" fill="none" stroke="#231f20" stroke-linecap="round" stroke-linejoin="round" stroke-width=".5"/><ellipse cx="216.95" cy="152.6" rx="3.22" ry="2.38" transform="translate(-44.36 198.1) rotate(-45)" fill="none" stroke="#231f20" stroke-linecap="round" stroke-linejoin="round" stroke-width=".5"/><ellipse cx="205.87" cy="141.51" rx="3.22" ry="2.38" transform="translate(-39.77 187.02) rotate(-45)" fill="none" stroke="#231f20" stroke-linecap="round" stroke-linejoin="round" stroke-width=".5"/><ellipse cx="259.97" cy="236.94" rx="2.38" ry="3.22" fill="none" stroke="#231f20" stroke-linecap="round" stroke-linejoin="round" stroke-width=".5"/><ellipse cx="244.66" cy="236.94" rx="2.38" ry="3.22" fill="none" stroke="#231f20" stroke-linecap="round" stroke-linejoin="round" stroke-width=".5"/><ellipse cx="229.19" cy="236.94" rx="2.38" ry="3.22" fill="none" stroke="#231f20" stroke-linecap="round" stroke-linejoin="round" stroke-width=".5"/><ellipse cx="213.57" cy="236.94" rx="2.38" ry="3.22" fill="none" stroke="#231f20" stroke-linecap="round" stroke-linejoin="round" stroke-width=".5"/><ellipse cx="198.04" cy="236.94" rx="2.38" ry="3.22" fill="none" stroke="#231f20" stroke-linecap="round" stroke-linejoin="round" stroke-width=".5"/><ellipse cx="181.97" cy="236.94" rx="2.38" ry="3.22" fill="none" stroke="#231f20" stroke-linecap="round" stroke-linejoin="round" stroke-width=".5"/><ellipse cx="166.3" cy="236.94" rx="2.38" ry="3.22" fill="none" stroke="#231f20" stroke-linecap="round" stroke-linejoin="round" stroke-width=".5"/><ellipse cx="272.04" cy="266.16" rx="2.38" ry="3.22" transform="translate(-108.53 270.32) rotate(-45)" fill="none" stroke="#231f20" stroke-linecap="round" stroke-linejoin="round" stroke-width=".5"/><ellipse cx="261.21" cy="276.99" rx="2.38" ry="3.22" transform="translate(-119.36 265.83) rotate(-45)" fill="none" stroke="#231f20" stroke-linecap="round" stroke-linejoin="round" stroke-width=".5"/><ellipse cx="250.27" cy="287.93" rx="2.38" ry="3.22" transform="translate(-130.3 261.3) rotate(-45)" fill="none" stroke="#231f20" stroke-linecap="round" stroke-linejoin="round" stroke-width=".5"/><ellipse cx="239.22" cy="298.98" rx="2.38" ry="3.22" transform="translate(-141.34 256.72) rotate(-45)" fill="none" stroke="#231f20" stroke-linecap="round" stroke-linejoin="round" stroke-width=".5"/><ellipse cx="228.25" cy="309.96" rx="2.38" ry="3.22" transform="translate(-152.32 252.18) rotate(-45)" fill="none" stroke="#231f20" stroke-linecap="round" stroke-linejoin="round" stroke-width=".5"/><ellipse cx="216.88" cy="321.32" rx="2.38" ry="3.22" transform="translate(-163.68 247.47) rotate(-45)" fill="none" stroke="#231f20" stroke-linecap="round" stroke-linejoin="round" stroke-width=".5"/><ellipse cx="205.8" cy="332.4" rx="2.38" ry="3.22" transform="translate(-174.77 242.88) rotate(-45)" fill="none" stroke="#231f20" stroke-linecap="round" stroke-linejoin="round" stroke-width=".5"/><ellipse cx="301.23" cy="278.3" rx="3.22" ry="2.38" fill="none" stroke="#231f20" stroke-linecap="round" stroke-linejoin="round" stroke-width=".5"/><ellipse cx="301.23" cy="293.61" rx="3.22" ry="2.38" fill="none" stroke="#231f20" stroke-linecap="round" stroke-linejoin="round" stroke-width=".5"/><ellipse cx="301.23" cy="309.08" rx="3.22" ry="2.38" fill="none" stroke="#231f20" stroke-linecap="round" stroke-linejoin="round" stroke-width=".5"/><ellipse cx="301.23" cy="324.71" rx="3.22" ry="2.38" fill="none" stroke="#231f20" stroke-linecap="round" stroke-linejoin="round" stroke-width=".5"/><ellipse cx="301.23" cy="340.23" rx="3.22" ry="2.38" fill="none" stroke="#231f20" stroke-linecap="round" stroke-linejoin="round" stroke-width=".5"/><ellipse cx="301.23" cy="356.3" rx="3.22" ry="2.38" fill="none" stroke="#231f20" stroke-linecap="round" stroke-linejoin="round" stroke-width=".5"/><ellipse cx="301.23" cy="371.98" rx="3.22" ry="2.38" fill="none" stroke="#231f20" stroke-linecap="round" stroke-linejoin="round" stroke-width=".5"/><ellipse cx="330.45" cy="266.24" rx="3.22" ry="2.38" transform="translate(-91.47 311.64) rotate(-45)" fill="none" stroke="#231f20" stroke-linecap="round" stroke-linejoin="round" stroke-width=".5"/><ellipse cx="341.28" cy="277.06" rx="3.22" ry="2.38" transform="translate(-95.95 322.47) rotate(-45)" fill="none" stroke="#231f20" stroke-linecap="round" stroke-linejoin="round" stroke-width=".5"/><ellipse cx="352.22" cy="288" rx="3.22" ry="2.38" transform="translate(-100.49 333.41) rotate(-45)" fill="none" stroke="#231f20" stroke-linecap="round" stroke-linejoin="round" stroke-width=".5"/><ellipse cx="363.27" cy="299.05" rx="3.22" ry="2.38" transform="translate(-105.06 344.46) rotate(-45)" fill="none" stroke="#231f20" stroke-linecap="round" stroke-linejoin="round" stroke-width=".5"/><ellipse cx="374.24" cy="310.03" rx="3.22" ry="2.38" transform="translate(-109.61 355.44) rotate(-45)" fill="none" stroke="#231f20" stroke-linecap="round" stroke-linejoin="round" stroke-width=".5"/><ellipse cx="385.61" cy="321.39" rx="3.22" ry="2.38" transform="translate(-114.32 366.8) rotate(-45)" fill="none" stroke="#231f20" stroke-linecap="round" stroke-linejoin="round" stroke-width=".5"/><ellipse cx="396.69" cy="332.48" rx="3.22" ry="2.38" transform="translate(-118.91 377.88) rotate(-45)" fill="none" stroke="#231f20" stroke-linecap="round" stroke-linejoin="round" stroke-width=".5"/><path d="m311.92,397.3v6.25c0,3.6-2.92,6.52-6.52,6.52h-8.48c-3.6,0-6.52-2.92-6.52-6.52v-6.09" fill="none" stroke="#231f20" stroke-linecap="round" stroke-linejoin="round"/></g><g id="Layer_4"><path d="m194.29,481.1h10.73v2.29h-8v4.47h7.1v2.31h-7.1v5.63h-2.73v-14.7Z" fill="#231f20"/><path d="m207.03,481.16c0-.88.71-1.58,1.7-1.58s1.68.65,1.68,1.51c0,.92-.69,1.64-1.68,1.64s-1.7-.69-1.7-1.57Zm.38,3.42h2.62v11.21h-2.62v-11.21Z" fill="#231f20"/><path d="m213.1,498.42l1.18-1.97c.99.82,2.58,1.34,4.14,1.34,2.48,0,3.57-1.13,3.57-3.4v-.59c-.92,1.01-2.25,1.49-3.76,1.49-3.21,0-5.67-2.18-5.67-5.44s2.46-5.4,5.67-5.4c1.57,0,2.96.5,3.88,1.62v-1.49h2.5v9.51c0,4.07-2.12,5.92-6.05,5.92-2.1,0-4.18-.55-5.46-1.6Zm8.92-8.57c0-1.89-1.43-3.17-3.4-3.17s-3.42,1.28-3.42,3.17,1.43,3.21,3.42,3.21,3.4-1.3,3.4-3.21Z" fill="#231f20"/><path d="m227.17,494.2c0-1.05.78-1.74,1.72-1.74s1.72.69,1.72,1.74-.78,1.74-1.72,1.74-1.72-.74-1.72-1.74Z" fill="#231f20"/><path d="m237.53,494.31l1.15-2.12c1.07.88,2.67,1.45,4.33,1.45,1.95,0,3.11-.86,3.11-2.25s-.9-2.29-3.95-2.29h-3.55l.76-8h8.63v2.29h-6.32l-.31,3.4h1.41c4.35,0,6.09,1.89,6.09,4.49s-1.87,4.72-5.82,4.72c-2.08,0-4.18-.63-5.52-1.7Z" fill="#231f20"/><path d="m256.47,488.87h5.77v2.18h-5.77v-2.18Z" fill="#231f20"/><path d="m271.17,481.1h6.89c3.53,0,5.42,1.49,5.42,3.82,0,1.51-.78,2.65-1.89,3.23,1.57.5,2.65,1.74,2.65,3.65,0,2.52-1.97,3.99-5.75,3.99h-7.31v-14.7Zm6.59,6.19c1.89,0,2.96-.67,2.96-2.02s-1.07-2.04-2.96-2.04h-3.86v4.05h3.86Zm.55,6.36c2.06,0,3.17-.65,3.17-2.12s-1.11-2.12-3.17-2.12h-4.41v4.24h4.41Z" fill="#231f20"/><path d="m285.97,490.19c0-3.36,2.52-5.73,5.96-5.73s5.98,2.37,5.98,5.73-2.5,5.75-5.98,5.75-5.96-2.39-5.96-5.75Zm9.3,0c0-2.14-1.43-3.51-3.34-3.51s-3.32,1.37-3.32,3.51,1.43,3.51,3.32,3.51,3.34-1.36,3.34-3.51Z" fill="#231f20"/><path d="m300.8,492.17v-5.48h-1.85v-2.1h1.85v-2.48h2.62v2.48h3v2.1h-3v5.42c0,1.09.55,1.68,1.55,1.68.55,0,1.07-.15,1.47-.46l.73,1.87c-.63.5-1.57.76-2.52.76-2.46,0-3.86-1.3-3.86-3.78Z" fill="#231f20"/><path d="m309.43,492.17v-5.48h-1.85v-2.1h1.85v-2.48h2.62v2.48h3v2.1h-3v5.42c0,1.09.55,1.68,1.55,1.68.55,0,1.07-.15,1.47-.46l.73,1.87c-.63.5-1.57.76-2.52.76-2.46,0-3.86-1.3-3.86-3.78Z" fill="#231f20"/><path d="m316.67,490.19c0-3.36,2.52-5.73,5.96-5.73s5.98,2.37,5.98,5.73-2.5,5.75-5.98,5.75-5.96-2.39-5.96-5.75Zm9.3,0c0-2.14-1.43-3.51-3.34-3.51s-3.32,1.37-3.32,3.51,1.43,3.51,3.32,3.51,3.34-1.36,3.34-3.51Z" fill="#231f20"/><path d="m331.14,484.59h2.5v1.41c.84-1.01,2.14-1.53,3.67-1.53,1.64,0,3,.61,3.78,1.89.9-1.18,2.41-1.89,4.2-1.89,2.71,0,4.6,1.53,4.6,4.91v6.42h-2.62v-6.09c0-1.99-.92-2.96-2.52-2.96-1.72,0-2.92,1.13-2.92,3.36v5.69h-2.62v-6.09c0-1.99-.92-2.96-2.52-2.96-1.74,0-2.92,1.13-2.92,3.36v5.69h-2.62v-11.21Z" fill="#231f20"/><path d="m357.23,484.59h2.73l3.49,8.31,3.59-8.31h2.52l-4.81,11.21h-2.71l-4.81-11.21Z" fill="#231f20"/><path d="m370.81,481.16c0-.88.71-1.58,1.7-1.58s1.68.65,1.68,1.51c0,.92-.69,1.64-1.68,1.64s-1.7-.69-1.7-1.57Zm.38,3.42h2.62v11.21h-2.62v-11.21Z" fill="#231f20"/><path d="m376.33,490.19c0-3.34,2.46-5.73,5.79-5.73s5.67,2.29,5.67,5.79c0,.21-.02.53-.04.78h-8.8c.31,1.64,1.68,2.69,3.63,2.69,1.26,0,2.25-.4,3.04-1.22l1.41,1.62c-1.01,1.2-2.58,1.83-4.51,1.83-3.76,0-6.19-2.42-6.19-5.75Zm8.97-.9c-.21-1.62-1.45-2.73-3.17-2.73s-2.94,1.09-3.19,2.73h6.36Z" fill="#231f20"/><path d="m388.47,484.59h2.48l2.96,8.27,3.09-8.27h2.2l3.02,8.29,3.04-8.29h2.33l-4.14,11.21h-2.52l-2.9-7.75-2.94,7.75h-2.52l-4.12-11.21Z" fill="#231f20"/></g></svg>