<?xml version="1.0" encoding="UTF-8"?><svg xmlns="http://www.w3.org/2000/svg" viewBox="0 0 600 600"><g id="Layer_4"><path d="m214.74,481.1h10.73v2.29h-8v4.47h7.1v2.31h-7.1v5.63h-2.73v-14.7Z" fill="#231f20"/><path d="m227.49,481.16c0-.88.71-1.58,1.7-1.58s1.68.65,1.68,1.51c0,.92-.69,1.64-1.68,1.64s-1.7-.69-1.7-1.57Zm.38,3.42h2.62v11.21h-2.62v-11.21Z" fill="#231f20"/><path d="m233.56,498.42l1.18-1.97c.99.82,2.58,1.34,4.14,1.34,2.48,0,3.57-1.13,3.57-3.4v-.59c-.92,1.01-2.25,1.49-3.76,1.49-3.21,0-5.67-2.18-5.67-5.44s2.46-5.4,5.67-5.4c1.57,0,2.96.5,3.88,1.62v-1.49h2.5v9.51c0,4.07-2.12,5.92-6.05,5.92-2.1,0-4.18-.55-5.46-1.6Zm8.92-8.57c0-1.89-1.43-3.17-3.4-3.17s-3.42,1.28-3.42,3.17,1.43,3.21,3.42,3.21,3.4-1.3,3.4-3.21Z" fill="#231f20"/><path d="m247.63,494.2c0-1.05.78-1.74,1.72-1.74s1.72.69,1.72,1.74-.78,1.74-1.72,1.74-1.72-.74-1.72-1.74Z" fill="#231f20"/><path d="m258.42,490.57l7.24-9.47h2.92l-6.82,9.05h4.81v-2.96h2.56v2.96h2.6v2.31h-2.6v3.34h-2.65v-3.34h-8.06v-1.89Z" fill="#231f20"/><path d="m278.92,488.87h5.77v2.18h-5.77v-2.18Z" fill="#231f20"/><path d="m296.6,483.41h-4.87v-2.31h12.47v2.31h-4.87v12.39h-2.73v-12.39Z" fill="#231f20"/><path d="m303.93,490.19c0-3.36,2.52-5.73,5.96-5.73s5.98,2.37,5.98,5.73-2.5,5.75-5.98,5.75-5.96-2.39-5.96-5.75Zm9.3,0c0-2.14-1.43-3.51-3.34-3.51s-3.32,1.37-3.32,3.51,1.43,3.51,3.32,3.51,3.34-1.36,3.34-3.51Z" fill="#231f20"/><path d="m321.02,494.43v5.44h-2.62v-15.29h2.5v1.47c.88-1.09,2.18-1.6,3.72-1.6,3.28,0,5.69,2.27,5.69,5.73s-2.41,5.75-5.69,5.75c-1.43,0-2.69-.5-3.59-1.51Zm6.61-4.24c0-2.14-1.43-3.51-3.32-3.51s-3.34,1.37-3.34,3.51,1.45,3.51,3.34,3.51,3.32-1.36,3.32-3.51Z" fill="#231f20"/><path d="m336.77,484.59h2.73l3.49,8.31,3.59-8.31h2.52l-4.81,11.21h-2.71l-4.81-11.21Z" fill="#231f20"/><path d="m350.36,481.16c0-.88.71-1.58,1.7-1.58s1.68.65,1.68,1.51c0,.92-.69,1.64-1.68,1.64s-1.7-.69-1.7-1.57Zm.38,3.42h2.62v11.21h-2.62v-11.21Z" fill="#231f20"/><path d="m355.88,490.19c0-3.34,2.46-5.73,5.79-5.73s5.67,2.29,5.67,5.79c0,.21-.02.53-.04.78h-8.8c.31,1.64,1.68,2.69,3.63,2.69,1.26,0,2.25-.4,3.04-1.22l1.41,1.62c-1.01,1.2-2.58,1.83-4.51,1.83-3.76,0-6.19-2.42-6.19-5.75Zm8.97-.9c-.21-1.62-1.45-2.73-3.17-2.73s-2.94,1.09-3.19,2.73h6.36Z" fill="#231f20"/><path d="m368.02,484.59h2.48l2.96,8.27,3.09-8.27h2.2l3.02,8.29,3.04-8.29h2.33l-4.14,11.21h-2.52l-2.9-7.75-2.94,7.75h-2.52l-4.12-11.21Z" fill="#231f20"/></g><g id="art_lines"><path d="m310.58,406.79c5.91,3.07,9.95,9.25,9.95,16.38,0,10.19-8.26,18.44-18.44,18.44s-18.44-8.26-18.44-18.44c0-6.61,3.48-12.41,8.71-15.67" fill="none" stroke="#231f20" stroke-linecap="round" stroke-linejoin="round"/><path d="m319.5,395.94c8.96,5.74,14.9,15.79,14.9,27.22,0,17.85-14.47,32.31-32.31,32.31s-32.31-14.47-32.31-32.31c0-11.15,5.65-20.99,14.25-26.79" fill="none" stroke="#231f20" stroke-linecap="round" stroke-linejoin="round"/><circle cx="300" cy="238.97" r="158.16" fill="none" stroke="#231f20" stroke-linecap="round" stroke-linejoin="round"/><path d="m311.87,396.69v6.22c0,3.58-2.9,6.49-6.49,6.49h-8.44c-3.58,0-6.49-2.9-6.49-6.49v-6.06" fill="none" stroke="#231f20" stroke-linecap="round" stroke-linejoin="round"/><path d="m365.87,149.88c15.43,11.45,28.23,28.26,34.14,46.28" fill="none" stroke="#231f20" stroke-linecap="round" stroke-linejoin="round" stroke-width=".25"/><path d="m192.85,234.66c-.53-23.64,8.02-46.82,22.56-65.32,14.55-18.53,34.98-32.44,57.77-38.61,13.22-3.58,27.05-4.41,40.61-2.56" fill="none" stroke="#231f20" stroke-linecap="round" stroke-linejoin="round" stroke-width=".25"/><path d="m357.68,156.37c13.96,10.53,24.94,24.74,32.03,40.69" fill="none" stroke="#231f20" stroke-linecap="round" stroke-linejoin="round" stroke-width=".25"/><path d="m202.75,234.66c.09-20.72,6.86-41.16,19.07-57.89,12.41-17.01,30.21-29.77,50.38-35.87,11.08-3.35,22.75-4.65,34.3-3.82" fill="none" stroke="#231f20" stroke-linecap="round" stroke-linejoin="round" stroke-width=".25"/><path d="m352.95,161.16c13.65,9.75,24.5,23.26,30.76,38.85" fill="none" stroke="#231f20" stroke-linecap="round" stroke-linejoin="round" stroke-width=".25"/><path d="m209.41,234.66c-.95-48.53,43.06-92.54,91.89-90.92" fill="none" stroke="#231f20" stroke-linecap="round" stroke-linejoin="round" stroke-width=".25"/><path d="m348.2,167.13c12.74,8.98,22.92,21.45,28.85,35.9" fill="none" stroke="#231f20" stroke-linecap="round" stroke-linejoin="round" stroke-width=".25"/><path d="m217.06,226.55c1.8-40.42,38.61-74.02,78.73-75.27" fill="none" stroke="#231f20" stroke-linecap="round" stroke-linejoin="round" stroke-width=".25"/><path d="m343.86,172.53c12,8.28,21.65,20,26.54,33.81" fill="none" stroke="#231f20" stroke-linecap="round" stroke-linejoin="round" stroke-width=".25"/><path d="m225.67,216.45c5.8-23.87,23.9-43.99,46.51-53.27,5.79-2.38,11.95-3.83,18.16-4.5" fill="none" stroke="#231f20" stroke-linecap="round" stroke-linejoin="round" stroke-width=".25"/><path d="m338.58,178.3c11.09,7.57,19.85,18.52,24.85,30.98" fill="none" stroke="#231f20" stroke-linecap="round" stroke-linejoin="round" stroke-width=".25"/><path d="m237.81,206.6c7.46-18.87,25.86-32.47,45.13-38.05" fill="none" stroke="#231f20" stroke-linecap="round" stroke-linejoin="round" stroke-width=".25"/><path d="m254.71,194.03c6.31-7.07,14.3-12.54,23.13-15.97" fill="none" stroke="#231f20" stroke-linecap="round" stroke-linejoin="round" stroke-width=".25"/><path d="m365.87,149.88c15.43,11.45,28.23,28.26,34.14,46.28" fill="none" stroke="#231f20" stroke-linecap="round" stroke-linejoin="round" stroke-width=".25"/><path d="m192.85,234.66c-.53-23.64,8.02-46.82,22.56-65.32,14.55-18.53,34.98-32.44,57.77-38.61,13.22-3.58,27.05-4.41,40.61-2.56" fill="none" stroke="#231f20" stroke-linecap="round" stroke-linejoin="round" stroke-width=".25"/><path d="m192.85,234.66c-.53-23.64,8.02-46.82,22.56-65.32,14.55-18.53,34.98-32.44,57.77-38.61,13.22-3.58,27.05-4.41,40.61-2.56" fill="none" stroke="#231f20" stroke-linecap="round" stroke-linejoin="round" stroke-width=".25"/><path d="m163.75,237.37c-1.68-28.01,8.1-55.87,25.61-78.47,17.53-22.63,42.67-40.05,71.09-48.4,16.49-4.84,33.87-6.46,51.03-4.88" fill="none" stroke="#231f20" stroke-linecap="round" stroke-linejoin="round" stroke-width=".25"/><path d="m175.02,236.96c-1.56-26.19,7.48-52.24,23.69-73.37,16.23-21.15,39.5-37.44,65.82-45.24,15.27-4.52,31.37-6.03,47.25-4.55" fill="none" stroke="#231f20" stroke-linecap="round" stroke-linejoin="round" stroke-width=".25"/><path d="m427.56,242.71c1.68,28.01-8.1,55.87-25.61,78.47-17.53,22.63-42.67,40.05-71.09,48.4-16.49,4.84-33.87,6.46-51.03,4.88" fill="none" stroke="#231f20" stroke-linecap="round" stroke-linejoin="round" stroke-width=".25"/><path d="m416.3,243.12c1.56,26.19-7.48,52.24-23.69,73.37-16.23,21.15-39.5,37.44-65.82,45.24-15.27,4.52-31.37,6.03-47.25,4.55" fill="none" stroke="#231f20" stroke-linecap="round" stroke-linejoin="round" stroke-width=".25"/><path d="m357.68,156.37c13.96,10.53,24.94,24.74,32.03,40.69" fill="none" stroke="#231f20" stroke-linecap="round" stroke-linejoin="round" stroke-width=".25"/><path d="m202.75,234.66c.09-20.72,6.86-41.16,19.07-57.89,12.41-17.01,30.21-29.77,50.38-35.87,11.08-3.35,22.75-4.65,34.3-3.82" fill="none" stroke="#231f20" stroke-linecap="round" stroke-linejoin="round" stroke-width=".25"/><path d="m352.95,161.16c13.65,9.75,24.5,23.26,30.76,38.85" fill="none" stroke="#231f20" stroke-linecap="round" stroke-linejoin="round" stroke-width=".25"/><path d="m209.41,234.66c-.95-48.53,43.06-92.54,91.89-90.92" fill="none" stroke="#231f20" stroke-linecap="round" stroke-linejoin="round" stroke-width=".25"/><path d="m348.2,167.13c12.74,8.98,22.92,21.45,28.85,35.9" fill="none" stroke="#231f20" stroke-linecap="round" stroke-linejoin="round" stroke-width=".25"/><path d="m217.06,226.55c1.8-40.42,38.61-74.02,78.73-75.27" fill="none" stroke="#231f20" stroke-linecap="round" stroke-linejoin="round" stroke-width=".25"/><path d="m343.86,172.53c12,8.28,21.65,20,26.54,33.81" fill="none" stroke="#231f20" stroke-linecap="round" stroke-linejoin="round" stroke-width=".25"/><path d="m225.67,216.45c5.8-23.87,23.9-43.99,46.51-53.27,5.79-2.38,11.95-3.83,18.16-4.5" fill="none" stroke="#231f20" stroke-linecap="round" stroke-linejoin="round" stroke-width=".25"/><path d="m338.58,178.3c11.09,7.57,19.85,18.52,24.85,30.98" fill="none" stroke="#231f20" stroke-linecap="round" stroke-linejoin="round" stroke-width=".25"/><path d="m237.81,206.6c7.46-18.87,25.86-32.47,45.13-38.05" fill="none" stroke="#231f20" stroke-linecap="round" stroke-linejoin="round" stroke-width=".25"/><path d="m254.71,194.03c6.31-7.07,14.3-12.54,23.13-15.97" fill="none" stroke="#231f20" stroke-linecap="round" stroke-linejoin="round" stroke-width=".25"/><path d="m398.17,285.38c5.93-13.52,8.97-28.23,8.97-42.98" fill="none" stroke="#231f20" stroke-linecap="round" stroke-linejoin="round" stroke-width=".25"/><path d="m325.93,346.33c13.83-3.37,27.15-9.35,38.35-18.21" fill="none" stroke="#231f20" stroke-linecap="round" stroke-linejoin="round" stroke-width=".25"/><path d="m211.49,302.79c11.38,16.97,28.18,30.57,47.27,38.58" fill="none" stroke="#231f20" stroke-linecap="round" stroke-linejoin="round" stroke-width=".25"/><path d="m192.85,242.4c0,4.94.33,9.87,1.01,14.76" fill="none" stroke="#231f20" stroke-linecap="round" stroke-linejoin="round" stroke-width=".25"/><path d="m388.3,283.13c5.66-12.26,8.72-25.65,8.93-39.16" fill="none" stroke="#231f20" stroke-linecap="round" stroke-linejoin="round" stroke-width=".25"/><path d="m316.21,338.31c13.33-2.27,26.24-7.16,37.43-14.8" fill="none" stroke="#231f20" stroke-linecap="round" stroke-linejoin="round" stroke-width=".25"/><path d="m222.87,301.65c8.41,11.07,19.15,20.34,31.38,26.96" fill="none" stroke="#231f20" stroke-linecap="round" stroke-linejoin="round" stroke-width=".25"/><path d="m381.54,280.91c5.49-10.37,8.56-22.07,8.92-33.8" fill="none" stroke="#231f20" stroke-linecap="round" stroke-linejoin="round" stroke-width=".25"/><path d="m311.32,332.41c13.1-1.68,25.82-6.18,37.04-13.14" fill="none" stroke="#231f20" stroke-linecap="round" stroke-linejoin="round" stroke-width=".25"/><path d="m228.84,298.31c6.35,8.14,14.07,15.2,22.75,20.78" fill="none" stroke="#231f20" stroke-linecap="round" stroke-linejoin="round" stroke-width=".25"/><path d="m378.31,270.72c2.35-6.49,3.89-13.26,4.56-20.13" fill="none" stroke="#231f20" stroke-linecap="round" stroke-linejoin="round" stroke-width=".25"/><path d="m307.29,325.35c12.19-1.05,24.07-4.85,34.64-11.01" fill="none" stroke="#231f20" stroke-linecap="round" stroke-linejoin="round" stroke-width=".25"/><path d="m233,291.85c4.77,6.44,10.48,12.19,16.87,17.02" fill="none" stroke="#231f20" stroke-linecap="round" stroke-linejoin="round" stroke-width=".25"/><path d="m303.54,318.45c11.83-.33,23.57-3.47,33.74-9.57" fill="none" stroke="#231f20" stroke-linecap="round" stroke-linejoin="round" stroke-width=".25"/><path d="m237.42,285.71c3.24,4.84,7.14,9.24,11.5,13.1" fill="none" stroke="#231f20" stroke-linecap="round" stroke-linejoin="round" stroke-width=".25"/><path d="m301.81,310.78c11.23-.14,22.29-3.34,32.04-8.87" fill="none" stroke="#231f20" stroke-linecap="round" stroke-linejoin="round" stroke-width=".25"/><path d="m241.96,278.58c2.05,3.24,4.32,6.34,6.82,9.24" fill="none" stroke="#231f20" stroke-linecap="round" stroke-linejoin="round" stroke-width=".25"/><path d="m299.96,303.2c11.02.03,22.02-2.98,31.47-8.64" fill="none" stroke="#231f20" stroke-linecap="round" stroke-linejoin="round" stroke-width=".25"/><path d="m246.37,271.08c.79,1.47,1.64,2.91,2.55,4.31" fill="none" stroke="#231f20" stroke-linecap="round" stroke-linejoin="round" stroke-width=".25"/><path d="m298.13,294.85c11.29.46,22.63-2.82,31.91-9.3" fill="none" stroke="#231f20" stroke-linecap="round" stroke-linejoin="round" stroke-width=".25"/><path d="m297.01,286.17c12.13.93,24.26-3.45,33.11-11.78" fill="none" stroke="#231f20" stroke-linecap="round" stroke-linejoin="round" stroke-width=".25"/><path d="m297.9,279.14c4.4.35,8.86-.1,13.09-1.36" fill="none" stroke="#231f20" stroke-linecap="round" stroke-linejoin="round" stroke-width=".25"/></g></svg>